<svg width="284" height="300" viewBox="0 0 284 300" fill="none" xmlns="http://www.w3.org/2000/svg">
<path d="M75.3597 300C39.8975 300 11.1484 293.803 11.1484 286.158C11.1484 281.842 20.3134 277.988 34.6776 275.449C33.6884 278.103 33.4283 281.745 36.1518 285.034C39.049 288.533 44.8915 288.641 45.5503 288.642H63.8943C63.9487 288.642 64.0041 288.638 64.0585 288.633C64.294 288.611 69.8626 288.008 72.0009 281.872C72.278 281.075 72.5861 277.957 72.957 272.328C73.7544 272.321 74.5549 272.318 75.3597 272.318C75.9321 272.318 76.5013 272.319 77.0695 272.322C77.1622 276.931 77.3957 280.144 77.9819 281.826C80.1192 287.962 85.6877 288.564 85.9233 288.587C85.9787 288.593 86.0331 288.595 86.0885 288.595H102.044C102.535 288.619 103.467 288.654 104.647 288.654C108.426 288.654 114.746 288.288 117.243 285.997C120.121 283.355 120.721 279.368 118.93 275.992C131.623 278.52 139.572 282.139 139.572 286.158C139.572 293.803 110.823 300 75.3597 300Z" fill="#67C1DA"/>
<path d="M166.088 155.61C166.088 155.61 133.52 160.454 109.804 174.748C106.515 176.723 103.395 178.887 100.558 181.245L99.7709 175.384L98.5216 166.03L95.0796 140.311C95.0796 140.311 145.021 125.353 169.124 132.716C174.311 134.301 177.826 136.67 179.838 139.293C185.388 146.51 179.6 155.646 166.088 155.61Z" fill="white"/>
<path d="M105.993 145.016C105.834 144.225 105.645 143.35 105.426 142.41C107.195 141.632 108.943 140.784 110.665 139.866C111.196 139.582 111.727 139.29 112.255 138.991C110.535 141.159 108.429 143.179 105.993 145.016Z" fill="#D7D1DA"/>
<path d="M172.337 137.442C172.276 137.159 172.25 136.996 172.25 136.996C172.25 136.996 172.293 137.154 172.337 137.442Z" fill="#D8D8D8"/>
<path d="M117.031 168.851C116.807 168.184 116.578 167.519 116.342 166.855C114.527 161.745 112.34 156.73 109.489 152.098C112.707 153.594 120.295 156.272 133.362 156.272C138.079 156.272 143.51 155.923 149.708 155.043C168.108 152.432 167.613 142.366 167.278 140.178C167.617 141.824 169.12 147.729 173.417 148.582C174.335 148.765 175.156 148.851 175.885 148.851C177.712 148.851 178.964 148.31 179.745 147.393C178.368 150.822 173.916 153.892 166.175 153.892C166.148 153.892 166.12 153.892 166.094 153.892C166.075 153.887 166.055 153.886 166.034 153.886C165.971 153.886 165.901 153.901 165.836 153.91C164.479 154.112 139.205 157.982 117.031 168.851Z" fill="#D7D1DA"/>
<path d="M100.558 182.962C100.064 182.962 99.5751 182.75 99.235 182.343C98.6264 181.613 98.7255 180.531 99.4567 179.925C122.859 160.487 164.092 154.171 165.836 153.91C165.921 153.898 166.018 153.876 166.094 153.892C166.12 153.892 166.148 153.892 166.175 153.892C174.995 153.892 179.544 149.907 180.143 145.948C180.852 141.26 176.33 136.711 168.622 134.357C145.292 127.233 96.067 141.806 95.5724 141.955C94.6642 142.227 93.7038 141.712 93.4298 140.804C93.157 139.895 93.6739 138.937 94.5832 138.665C96.6437 138.048 145.303 123.643 169.63 131.073C181.09 134.573 184.289 141.549 183.546 146.459C182.728 151.868 177.053 157.31 166.221 157.326C163.699 157.722 123.702 164.255 101.658 182.564C101.336 182.831 100.946 182.962 100.558 182.962Z" fill="#371A45"/>
<path d="M59.3048 136.037L59.9934 145.571L60.3452 150.426L66.4009 234.17C66.4009 234.17 60.6565 234.259 52.9443 233.759C51.436 233.661 49.8509 233.541 48.221 233.394C36.067 232.301 21.312 229.679 15.7091 223.445C7.33423 214.121 5.93719 168.593 13.4151 150.54C16.8402 142.265 34.2474 138.661 46.6093 137.126C47.9908 136.952 49.3115 136.806 50.5395 136.685C55.72 136.161 59.3048 136.037 59.3048 136.037Z" fill="white"/>
<path d="M35.3008 229.928C27.4927 228.434 20.3705 226.061 16.9909 222.299C15.8985 221.083 14.8954 219.053 14.0156 216.375C16.3112 217.84 19.0703 218.573 21.8075 218.573C24.9738 218.573 28.1109 217.592 30.4678 215.628C32.8811 213.618 33.9662 210.224 34.3052 206.471C34.3468 206.473 34.3873 206.474 34.4278 206.477C34.5632 207.587 34.7422 208.698 34.9757 209.802C35.0322 210.074 35.093 210.345 35.159 210.615C35.1793 216.055 35.2326 222.842 35.3008 229.928Z" fill="#D7D1DA"/>
<path d="M57.7093 137.826C45.7248 138.447 18.9123 141.759 15.0032 151.196C11.6279 159.343 9.83957 174.294 10.3363 190.213C10.8209 205.744 13.4329 218.339 16.991 222.299C25.3566 231.613 56.6412 232.406 64.5538 232.456L57.7093 137.826ZM65.0484 235.897C57.6773 235.897 24.0465 235.299 14.4286 224.592C5.62959 214.796 4.02235 168.714 11.8231 149.883C14.3105 143.878 23.1458 139.438 38.0819 136.688C48.8768 134.7 59.143 134.325 59.2454 134.322L60.9019 134.264L68.2505 235.861L66.4299 235.888C66.2743 235.891 65.7957 235.897 65.0484 235.897Z" fill="#371A45"/>
<path d="M11.8839 189.094L28.4054 189.9C29.8796 189.971 31.1214 191.024 31.422 192.468C32.5242 197.751 34.4334 210.088 29.3658 214.31C25.1596 217.815 18.1767 217.599 14.0004 214.254C9.32864 210.512 8.56425 198.383 8.48078 192.372C8.45499 190.503 10.0134 189.003 11.8839 189.094Z" fill="white"/>
<path d="M21.1427 215.123C18.94 214.999 16.7594 214.261 15.0771 212.914C13.7314 211.837 12.6181 209.61 11.7959 206.483C12.0496 206.782 12.3131 207.058 12.5856 207.309C15.0452 209.572 17.2911 210.377 19.2417 210.377C22.2737 210.377 24.5923 208.432 25.8906 206.995C25.8778 207.066 25.8639 207.136 25.8501 207.208C25.4674 208.96 24.8236 210.63 23.9058 212.087C23.4655 212.826 22.9198 213.486 22.3441 214.086C22.0544 214.385 21.7463 214.662 21.4285 214.908C21.3343 214.985 21.2388 215.056 21.1427 215.123ZM25.3875 214.571C25.6497 214.159 25.8885 213.736 26.0963 213.301C27.0205 211.466 27.5556 209.5 27.7944 207.541C27.8189 207.3 27.8423 207.061 27.8637 206.82C28.2336 207.341 28.6749 207.826 29.0607 207.875C29.1322 207.883 29.2014 207.887 29.2686 207.887C29.9743 207.887 30.4859 207.408 30.8494 206.596C30.519 209.625 29.6513 211.834 28.2634 212.992C27.4288 213.687 26.4481 214.213 25.3875 214.571Z" fill="#D7D1DA"/>
<path d="M11.722 190.807C11.3252 190.807 10.9524 190.957 10.6654 191.234C10.3601 191.529 10.1951 191.923 10.2011 192.348C10.3474 202.898 12.1701 210.585 15.077 212.914C18.747 215.854 24.7851 215.89 28.2633 212.992C31.2927 210.467 31.8438 202.925 29.7375 192.817C29.5968 192.143 29.0148 191.649 28.3209 191.615L11.7995 190.809C11.7735 190.808 11.7477 190.807 11.722 190.807ZM21.8075 218.573C18.6202 218.573 15.4035 217.58 12.9233 215.593C8.04088 211.682 6.87675 200.82 6.76024 192.396C6.74116 191.033 7.29343 189.709 8.27506 188.763C9.25723 187.817 10.6008 187.317 11.9676 187.378L28.4882 188.184C30.748 188.294 32.6465 189.912 33.107 192.118C34.5205 198.899 36.0565 210.972 30.4677 215.628C28.1109 217.592 24.9738 218.573 21.8075 218.573Z" fill="#371A45"/>
<path d="M20.5334 215.499C20.5951 215.475 20.8036 215.353 20.9489 215.256C21.1096 215.149 21.2709 215.036 21.4285 214.908C21.7462 214.663 22.0544 214.385 22.344 214.086C22.9197 213.486 23.4655 212.826 23.9057 212.087C24.8235 210.63 25.4674 208.96 25.85 207.208C26.0217 206.327 26.1858 205.436 26.254 204.528C26.3649 203.63 26.3809 202.683 26.4118 201.763C26.4331 200.836 26.4203 199.91 26.3617 198.991C26.3297 198.533 26.2913 198.074 26.2295 197.622C26.1709 197.179 26.0867 196.699 25.979 196.327L25.9641 196.277C25.8948 196.037 26.0334 195.785 26.2743 195.716C26.5013 195.651 26.739 195.774 26.8233 195.99C27.2038 196.982 27.3626 197.896 27.53 198.859C27.6813 199.811 27.7837 200.767 27.853 201.722C27.9105 202.684 27.9841 203.623 27.9596 204.604C27.9777 205.58 27.8945 206.559 27.7943 207.541C27.5556 209.5 27.0205 211.467 26.0963 213.301C25.6539 214.226 25.0751 215.097 24.4206 215.919C24.0901 216.33 23.732 216.722 23.3376 217.094C23.1457 217.281 22.9368 217.461 22.721 217.637C22.4876 217.82 22.3071 217.966 21.9598 218.177L21.8859 218.221C21.1643 218.656 20.2253 218.427 19.7884 217.706C19.3516 216.986 19.5823 216.049 20.3039 215.613C20.3758 215.57 20.4579 215.53 20.5334 215.499Z" fill="#371A45"/>
<path d="M38.2376 149.503C36.2368 149.421 34.2115 149.391 32.199 149.389C30.1843 149.389 28.1707 149.422 26.1667 149.513C24.1638 149.603 22.1637 149.725 20.1952 149.954C18.2315 150.181 16.2739 150.471 14.4552 150.957L14.4427 150.961C13.5243 151.207 12.58 150.663 12.3336 149.747C12.0873 148.83 12.6321 147.887 13.5506 147.641C13.5879 147.632 13.6298 147.622 13.6672 147.615C15.8052 147.199 17.8887 147.043 19.9638 146.944C22.0377 146.848 24.0945 146.862 26.1443 146.91C28.1952 146.958 30.2376 147.065 32.2746 147.204C34.3149 147.345 36.3391 147.515 38.3815 147.739C38.8686 147.792 39.2204 148.23 39.166 148.716C39.1149 149.181 38.7119 149.522 38.2514 149.504L38.2376 149.503Z" fill="#371A45"/>
<path d="M74.6283 205.725C74.2936 210.75 73.6124 226.073 72.8663 241.635C71.9677 260.438 70.9763 279.587 70.3751 281.309C68.5737 286.475 63.8941 286.926 63.8941 286.926H45.5501C45.5501 286.926 39.9432 286.917 37.4766 283.94C33.426 279.049 37.5448 273.726 37.5448 273.726C37.5448 273.726 37.2346 251.543 37.0332 231.239C36.949 222.513 36.8839 214.13 36.8722 208.006L74.6283 205.725Z" fill="white"/>
<path d="M70.4763 241.71C58.2605 241.71 48.0625 235.799 38.7621 231.935C38.7141 227.115 38.6725 222.383 38.6416 218.07C38.7418 218.11 38.8495 218.13 38.9593 218.13C39.0563 218.13 39.1543 218.114 39.2513 218.08C39.2918 218.065 39.3313 218.047 39.3697 218.027C42.3266 223.316 47.1522 227.481 53.0043 230.485C58.4726 233.292 64.8396 235.089 71.4197 235.847C71.3291 237.762 71.2364 239.724 71.1415 241.704C70.9187 241.708 70.697 241.71 70.4763 241.71Z" fill="#D7D1DA"/>
<path d="M63.7862 285.206H45.5541C44.2153 285.2 40.3917 284.764 38.8035 282.845C37.5243 281.301 37.2951 279.688 37.4763 278.314C40.4322 280.245 44.7483 280.251 44.7483 280.251H64.623C64.623 280.251 66.9702 280.025 69.084 278.12C68.9604 279.487 68.8474 280.4 68.7493 280.744C67.436 284.516 64.2659 285.134 63.7862 285.206Z" fill="#D7D1DA"/>
<path d="M63.8941 288.642H45.5501C44.8914 288.641 39.0489 288.533 36.1516 285.034C32.5274 280.658 34.1871 275.653 35.8169 273.191C35.7444 267.912 35.1859 226.929 35.1518 208.011C35.1507 207.062 35.9193 206.291 36.869 206.29H36.8722C37.822 206.29 38.5916 207.057 38.5937 208.004C38.6289 228.124 39.2589 273.25 39.2653 273.704C39.2706 274.092 39.1448 274.47 38.9071 274.778C38.7792 274.946 35.6986 279.095 38.8037 282.845C40.392 284.764 44.2156 285.2 45.5544 285.206H63.7865C64.2662 285.134 67.4363 284.516 68.7496 280.744C69.4307 278.349 70.826 248.536 71.7502 228.808C72.2416 218.314 72.6659 209.25 72.9089 205.61C72.9729 204.663 73.7947 203.946 74.7413 204.01C75.6889 204.073 76.4063 204.891 76.3424 205.838C76.1015 209.445 75.6783 218.492 75.1879 228.969C73.5837 263.218 72.6979 279.871 72.0007 281.872C69.8624 288.008 64.2939 288.611 64.0583 288.633C64.0039 288.638 63.9485 288.642 63.8941 288.642Z" fill="#371A45"/>
<path d="M116.583 275.552C118.728 278.204 119.013 282.037 116.08 284.733C113.141 287.428 102.085 286.877 102.085 286.877H86.0871C86.0871 286.877 81.4075 286.427 79.6061 281.261C78.2107 277.254 79.0369 260.712 78.5369 241.823C78.4325 237.812 78.2672 233.697 78.0093 229.573L118.236 210.013C117.612 217.38 116.926 224.589 116.232 231.344C113.863 254.532 111.457 272.318 111.457 272.318C111.457 272.318 114.745 273.276 116.583 275.552Z" fill="white"/>
<path d="M104.484 285.217C103.668 285.217 102.885 285.198 102.172 285.163C102.144 285.162 102.115 285.161 102.086 285.161H86.2005C85.6792 285.08 82.5389 284.448 81.232 280.698C81.1265 280.396 81.0359 279.992 80.957 279.497C82.2351 280.07 83.2147 280.165 83.2147 280.165H101.302C101.302 280.165 102.348 280.216 103.914 280.216C107.356 280.216 113.311 279.966 116.223 278.367C116.806 280.013 116.594 281.926 114.914 283.468C113.533 284.736 108.581 285.217 104.484 285.217Z" fill="#D7D1DA"/>
<path d="M80.2607 241.822C80.2127 239.984 80.1519 238.122 80.0752 236.247C83.1419 236.178 86.1874 235.886 89.1497 235.367C96.9791 233.997 104.211 231.047 109.602 226.469C109.607 226.464 109.609 226.463 109.614 226.459C109.615 226.458 109.614 226.459 109.615 226.458C110.398 225.792 111.143 225.092 111.845 224.357C112.009 224.51 112.22 224.587 112.431 224.587C112.645 224.587 112.861 224.507 113.028 224.346C113.912 223.499 114.724 222.578 115.465 221.601C115.128 225.155 114.782 228.635 114.435 231.997C112.201 232.85 109.761 233.931 107.143 235.306C96.7147 240.792 85.7056 241.734 80.2607 241.822Z" fill="#D7D1DA"/>
<path d="M104.647 288.654C103.467 288.654 102.535 288.619 102.044 288.595H86.0885C86.0331 288.595 85.9787 288.593 85.9233 288.587C85.6877 288.564 80.1192 287.962 77.9819 281.826C77.0098 279.039 77.0087 272.042 77.0077 261.453C77.0055 252.341 77.0045 240.998 76.2924 229.683C76.2338 228.736 76.9544 227.92 77.902 227.861C78.8507 227.793 79.6683 228.521 79.7269 229.467C80.4454 240.891 80.4475 252.292 80.4485 261.452C80.4496 270.577 80.4517 278.458 81.232 280.697C82.5389 284.448 85.6792 285.08 86.2004 285.16H102.086C102.115 285.16 102.144 285.161 102.172 285.163C106.467 285.377 113.258 284.989 114.914 283.468C117.237 281.337 116.754 278.498 115.246 276.63C113.786 274.822 111.004 273.974 110.976 273.967C110.159 273.729 109.639 272.931 109.752 272.088C109.792 271.792 113.787 242.101 116.523 209.87C116.603 208.925 117.43 208.225 118.383 208.303C119.329 208.384 120.032 209.215 119.952 210.16C117.541 238.569 114.153 265.01 113.342 271.193C114.646 271.759 116.581 272.81 117.924 274.474C120.854 278.1 120.567 282.946 117.243 285.997C114.746 288.288 108.426 288.654 104.647 288.654Z" fill="#371A45"/>
<path d="M120.205 202.714C119.623 210.928 117.28 218.351 112.389 223.772C94.7098 243.376 47.358 239.542 37.8625 214.814C36.626 211.586 36.0098 207.416 35.8638 202.714C35.3863 186.947 40.2182 165.184 44.6963 152.848C44.6963 152.848 44.7016 152.526 44.7272 151.942C45.0065 146.384 47.6767 116.97 73.2671 111.485C95.9154 106.623 103.766 133.944 105.993 145.017C106.544 147.768 106.751 149.517 106.751 149.517C114.128 162.287 121.51 184.454 120.205 202.714Z" fill="white"/>
<path d="M68.8486 156.021C61.0234 156.021 53.6289 154.842 47.0786 152.746L47.0807 152.74C47.0818 152.741 47.0818 152.741 47.0829 152.741L49.8288 144.756C57.8064 147.508 66.1794 148.89 74.577 148.89C85.0586 148.89 95.5795 146.738 105.426 142.41C105.645 143.351 105.834 144.225 105.993 145.017C97.074 151.748 83.741 156.021 68.8486 156.021Z" fill="#D7D1DA"/>
<path d="M52.711 136.376L47.0827 152.74C40.9716 150.789 35.5971 148.038 31.2896 144.698C37.8707 140.902 45.2045 137.992 52.711 136.376Z" fill="#D8D8D8"/>
<path d="M76.6296 236.23C76.0359 236.211 75.4423 236.183 74.8486 236.148C75.4423 236.183 76.0359 236.211 76.6296 236.23Z" fill="#67C1DA"/>
<path d="M71.4198 235.847C64.8397 235.088 58.4727 233.291 53.0044 230.485C58.4738 233.292 64.8375 235.088 71.4198 235.847Z" fill="#B7ACBC"/>
<path d="M74.8486 236.148C73.7007 236.079 72.5593 235.979 71.4199 235.847C72.5571 235.978 73.7018 236.079 74.8486 236.148Z" fill="#371A45"/>
<path d="M80.0752 236.247C83.1398 236.178 86.1895 235.886 89.1497 235.367C86.1874 235.887 83.1419 236.178 80.0752 236.247Z" fill="#B7ACBC"/>
<path d="M78.6623 236.263C77.9856 236.263 77.3067 236.251 76.6299 236.23C77.3067 236.251 77.9845 236.263 78.6613 236.263C79.1334 236.263 79.6034 236.258 80.0745 236.247C79.6045 236.258 79.1324 236.263 78.6623 236.263Z" fill="#371A45"/>
<path d="M109.602 226.469C109.605 226.466 109.611 226.462 109.614 226.459C109.608 226.463 109.607 226.464 109.602 226.469ZM109.615 226.458C110.398 225.792 111.143 225.092 111.844 224.357C111.143 225.092 110.398 225.792 109.615 226.458Z" fill="#B7ACBC"/>
<path d="M78.6613 236.263C77.9845 236.263 77.3065 236.251 76.6296 236.23C76.0359 236.211 75.4422 236.183 74.8484 236.148C73.7015 236.079 72.5566 235.978 71.4193 235.847C64.837 235.089 58.4732 233.293 53.0038 230.485C47.1496 227.481 42.3283 223.317 39.3703 218.027C39.7423 217.827 39.9224 217.381 39.7764 216.971C39.3244 215.71 38.9439 214.44 38.654 213.179C38.6177 213.004 38.5825 212.829 38.5474 212.654C38.5953 212.697 38.6444 212.74 38.6923 212.782C39.4822 213.453 40.4032 213.974 41.3295 214.319C42.9785 214.923 44.6393 215.143 46.2638 215.143C46.4663 215.143 46.6689 215.14 46.8703 215.134C47.7796 215.106 48.6814 215.017 49.5683 214.861C50.4573 214.716 51.3324 214.508 52.1916 214.245C54.0794 213.675 55.915 212.841 57.581 211.729C60.3323 211.605 63.0217 211.234 65.3913 210.486L65.4179 211.763C65.419 211.818 65.4211 211.873 65.4233 211.927L65.4392 212.711C65.4883 215.15 66.4913 217.429 68.2662 219.128C69.9919 220.781 72.2368 221.685 74.6054 221.685C74.6704 221.685 74.7365 221.685 74.8015 221.683L75.6255 221.666C75.6681 221.666 75.7108 221.665 75.7534 221.665L106.191 221.04L107.874 221.015L107.873 221.006L108.484 220.993C110.731 220.947 112.792 220.17 114.449 218.897C113.681 220.397 112.787 221.837 111.75 223.197L111.744 223.205C111.491 223.536 111.51 224.012 111.808 224.322C111.82 224.335 111.832 224.346 111.844 224.357C111.143 225.092 110.398 225.792 109.615 226.458L109.613 226.459C109.61 226.462 109.605 226.466 109.602 226.469C104.212 231.045 96.9755 233.997 89.1493 235.367C86.1891 235.885 83.1394 236.178 80.0748 236.247C79.6036 236.258 79.1336 236.263 78.6613 236.263ZM118.282 204.75L118.239 202.712H118.457C118.416 203.387 118.365 204.063 118.3 204.736C118.294 204.74 118.287 204.745 118.282 204.75Z" fill="#D7D1DA"/>
<path d="M38.2493 217.764C37.4178 216.589 36.7591 215.305 36.2069 213.947C35.6867 212.593 35.2657 211.203 34.9757 209.803C34.3831 206.999 34.14 204.165 34.0899 201.353C33.9801 195.726 34.4204 190.15 35.1634 184.634C35.5268 181.874 35.9809 179.13 36.4969 176.399C37.0075 173.668 37.5895 170.951 38.2418 168.249C38.8835 165.546 39.6137 162.863 40.411 160.197C41.2062 157.529 42.0707 154.878 43.0759 152.262C43.416 151.376 44.4116 150.933 45.2984 151.273C46.1619 151.603 46.6053 152.552 46.3164 153.418L46.3122 153.431C45.453 155.991 44.661 158.588 43.934 161.206C43.2113 163.827 42.5589 166.468 41.9364 169.119C41.3256 171.771 40.7639 174.435 40.2511 177.106C39.7438 179.78 39.2961 182.463 38.8995 185.151C38.5062 187.839 38.196 190.536 37.9615 193.232C37.7248 195.928 37.582 198.627 37.5809 201.315C37.5863 204 37.7099 206.671 38.0201 209.293C38.148 210.613 38.3911 211.897 38.6544 213.179C38.9443 214.44 39.3248 215.71 39.7768 216.971C39.9378 217.422 39.7022 217.918 39.2513 218.08C38.8761 218.213 38.4689 218.073 38.2493 217.764Z" fill="#371A45"/>
<path d="M92.5694 235.542C90.527 236.393 88.3823 236.959 86.2099 237.345C84.0375 237.73 81.832 237.945 79.6244 237.972C77.4179 238.006 75.2093 237.86 73.0273 237.544C70.8474 237.227 68.6888 236.74 66.6166 235.976L66.6134 235.975C66.1615 235.809 65.9312 235.309 66.0975 234.858C66.2307 234.497 66.5793 234.278 66.9449 234.291L73.2938 234.504C75.3926 234.561 77.484 234.569 79.5733 234.538C81.6626 234.502 83.7508 234.434 85.8443 234.308L92.1718 233.871C92.6525 233.837 93.0693 234.198 93.1034 234.678C93.1301 235.059 92.9041 235.401 92.5694 235.542Z" fill="#371A45"/>
<path d="M107.498 149.085C111.355 154.518 114.126 160.616 116.342 166.855C118.558 173.105 120.279 179.548 121.254 186.144C122.218 192.731 122.515 199.489 121.527 206.183C121.022 209.521 120.151 212.838 118.764 215.956C117.386 219.069 115.482 221.993 113.028 224.346C112.685 224.676 112.139 224.665 111.809 224.322C111.51 224.012 111.491 223.535 111.745 223.205L111.75 223.197C115.605 218.144 117.48 211.992 118.194 205.736C118.921 199.456 118.497 193.03 117.531 186.707C116.553 180.376 114.998 174.11 113.018 167.983C111.002 161.861 108.634 155.872 106.008 149.942L106.003 149.932C105.81 149.497 106.008 148.987 106.444 148.794C106.827 148.625 107.266 148.757 107.498 149.085Z" fill="#371A45"/>
<path d="M155.176 131.443C155.176 131.443 162.548 122.569 166.723 125.605C169.667 127.745 166.115 132.71 165.657 134.382C165.606 134.965 167.98 137.194 167.218 146.389" fill="white"/>
<path d="M153.851 130.347C154.528 129.487 155.193 128.751 155.931 128.009C156.661 127.274 157.427 126.564 158.255 125.895C159.095 125.239 159.987 124.614 161.012 124.085C162.037 123.575 163.209 123.115 164.653 123.085C165.367 123.072 166.153 123.208 166.867 123.527C167.574 123.853 168.195 124.292 168.73 124.959C169.259 125.614 169.581 126.446 169.673 127.193C169.775 127.945 169.717 128.632 169.602 129.243C169.359 130.468 168.919 131.479 168.478 132.428C168.255 132.901 168.024 133.352 167.808 133.782L167.507 134.395C167.417 134.58 167.337 134.775 167.317 134.834L167.371 134.531C167.381 134.445 167.38 134.356 167.371 134.27L167.358 134.18L167.348 134.124C167.324 134.03 167.321 134.025 167.314 134.005C167.302 133.979 167.309 134.006 167.326 134.046L167.465 134.366C167.576 134.616 167.691 134.889 167.794 135.162C167.999 135.712 168.176 136.268 168.299 136.826C168.543 137.941 168.68 139.04 168.706 140.127C168.744 141.213 168.694 142.285 168.591 143.34C168.473 144.394 168.317 145.436 168.076 146.459C167.965 146.926 167.497 147.216 167.029 147.106C166.651 147.017 166.388 146.693 166.361 146.325V146.318C166.286 145.304 166.236 144.303 166.142 143.314C166.063 142.326 165.941 141.352 165.792 140.401C165.624 139.456 165.444 138.528 165.157 137.668C165.018 137.237 164.869 136.822 164.69 136.425C164.6 136.224 164.506 136.031 164.396 135.819L164.209 135.447C164.172 135.37 164.129 135.28 164.074 135.133C164.047 135.052 164.021 134.988 163.986 134.83L163.966 134.728L163.957 134.677L163.947 134.59C163.937 134.472 163.936 134.351 163.943 134.234C163.95 134.141 163.964 134.053 163.987 133.967L163.998 133.93C164.11 133.517 164.222 133.26 164.33 132.998L164.648 132.278C164.853 131.824 165.052 131.394 165.229 130.973C165.585 130.136 165.871 129.31 165.981 128.605C166.042 128.255 166.04 127.949 166.004 127.733C165.967 127.509 165.901 127.404 165.813 127.296C165.736 127.195 165.535 127.051 165.349 126.976C165.163 126.907 164.963 126.856 164.696 126.863C164.168 126.864 163.444 127.096 162.726 127.461C162 127.819 161.264 128.306 160.553 128.846C159.834 129.38 159.129 129.972 158.451 130.601C158.111 130.915 157.778 131.238 157.451 131.568C157.124 131.886 156.781 132.236 156.501 132.54L156.469 132.573C155.824 133.27 154.735 133.313 154.037 132.669C153.375 132.058 153.307 131.044 153.851 130.347Z" fill="#371A45"/>
<path d="M121.733 201.254C121.733 204.636 118.986 207.379 115.596 207.379C112.207 207.379 109.46 204.636 109.46 201.254C109.46 197.872 112.207 195.13 115.596 195.13C118.986 195.13 121.733 197.872 121.733 201.254Z" fill="white"/>
<path d="M115.596 196.847C113.161 196.847 111.181 198.824 111.181 201.254C111.181 203.684 113.161 205.661 115.596 205.661C118.03 205.661 120.012 203.684 120.012 201.254C120.012 198.824 118.03 196.847 115.596 196.847ZM115.596 209.096C111.264 209.096 107.74 205.578 107.74 201.254C107.74 196.93 111.264 193.412 115.596 193.412C119.929 193.412 123.453 196.93 123.453 201.254C123.453 205.578 119.929 209.096 115.596 209.096Z" fill="#371A45"/>
<path d="M109.399 219.255L74.7666 219.965C70.6681 220.05 67.2421 216.771 67.1568 212.675L66.7795 194.28C66.7048 190.693 69.2162 187.629 72.5964 186.866C73.075 186.755 73.5728 186.695 74.0834 186.685L108.711 185.975C112.816 185.889 116.242 189.169 116.322 193.265L116.625 207.834L116.704 211.66C116.79 215.756 113.498 219.17 109.399 219.255Z" fill="white"/>
<path d="M109.399 219.255L74.7666 219.965C70.6681 220.05 67.2421 216.771 67.1568 212.675L66.7795 194.28C66.7048 190.693 69.2162 187.629 72.5964 186.866C73.075 186.755 73.5728 186.695 74.0834 186.685L108.711 185.975C112.816 185.889 116.242 189.169 116.322 193.265L116.625 207.834L116.704 211.66C116.79 215.756 113.498 219.17 109.399 219.255Z" fill="white"/>
<path d="M109.399 219.255L74.7666 219.965C70.6681 220.05 67.2421 216.771 67.1568 212.675L66.7795 194.28C66.7048 190.693 69.2162 187.629 72.5964 186.866C73.075 186.755 73.5728 186.695 74.0834 186.685L108.711 185.975C112.816 185.889 116.242 189.169 116.322 193.265L116.625 207.834L116.704 211.66C116.79 215.756 113.498 219.17 109.399 219.255Z" fill="white"/>
<path d="M83.4754 217.937C81.9926 217.937 80.5899 217.373 79.5079 216.336C78.3972 215.272 77.7693 213.849 77.7384 212.327L77.4165 196.664C77.8194 198.092 78.2906 199.411 78.8491 200.623C78.6189 201.427 78.4995 202.293 78.5134 203.196C78.5411 205.13 79.17 206.953 80.2818 208.328C81.4501 209.773 83.0085 210.565 84.6778 210.565C84.7034 210.565 84.73 210.565 84.7556 210.564L87.4535 210.525C88.2509 210.513 88.9693 210.158 89.4575 209.593C92.39 210.445 95.9662 210.87 100.35 210.87C100.445 210.87 100.541 210.87 100.637 210.87C107.225 210.84 111.776 209.932 114.92 208.658L114.964 210.747C115.039 214.427 112.101 217.483 108.413 217.56L105.66 217.616L105.552 217.618C105.513 217.617 105.473 217.617 105.434 217.617C105.331 217.617 105.23 217.619 105.136 217.62L83.5894 217.936C83.5511 217.936 83.5138 217.937 83.4754 217.937Z" fill="#D7D1DA"/>
<path d="M107.938 187.708C107.891 187.708 107.845 187.708 107.799 187.709L75.0684 188.38C71.3813 188.457 68.4435 191.513 68.5192 195.193L68.8593 211.693C68.9349 215.373 72.0038 218.314 75.6835 218.231L108.414 217.559C112.101 217.483 115.04 214.427 114.964 210.747L114.624 194.247C114.548 190.612 111.562 187.708 107.938 187.708ZM75.7187 219.948H75.724H75.7187ZM75.5439 221.666C70.0531 221.667 65.5313 217.267 65.4183 211.763L65.0783 195.263C64.9643 189.689 69.4135 185.062 74.9981 184.947L107.728 184.275C113.321 184.136 117.95 188.603 118.064 194.177L118.404 210.677C118.519 216.251 114.068 220.878 108.484 220.993L75.7538 221.665C75.6846 221.666 75.6131 221.666 75.5439 221.666Z" fill="#371A45"/>
<path d="M97.1477 219.379L97.0806 219.511L74.7648 219.967C71.761 220.026 69.1206 218.285 67.8926 215.731C67.4417 214.805 67.1816 213.772 67.1614 212.676L66.9898 204.504L66.9333 201.807L66.8395 197.073L66.7808 194.282C66.6977 190.185 69.983 186.771 74.0826 186.685L81.5656 186.535C78.1301 187.254 75.5675 190.343 75.6389 193.963L75.7498 199.423L75.8446 203.9L76.0152 212.366C76.1037 216.454 79.5286 219.736 83.6261 219.655L97.1477 219.379Z" fill="white"/>
<path d="M74.573 218.252C73.1084 218.252 71.7205 217.676 70.6492 216.65C69.5385 215.586 68.9106 214.163 68.8797 212.642L68.7944 208.51C69.8231 207.295 71.4796 204.869 71.5137 201.813C71.5286 200.567 71.2792 199.357 70.7696 198.193C71.0223 198.466 71.2547 198.796 71.4583 199.192C72.1746 200.582 72.893 201.115 73.572 201.115C73.7383 201.115 73.9036 201.084 74.0645 201.024L74.299 212.396C74.3417 214.557 75.1347 216.593 76.5503 218.212L74.7307 218.25C74.6774 218.251 74.6252 218.252 74.573 218.252Z" fill="#D7D1DA"/>
<path d="M75.7208 188.367L74.1197 188.399C70.956 188.466 68.4339 191.088 68.5011 194.244L68.8795 212.642C68.9104 214.163 69.5382 215.586 70.649 216.65C71.7586 217.714 73.2083 218.292 74.7305 218.25L76.5501 218.212C75.1345 216.593 74.3414 214.557 74.2988 212.396L73.9204 194.001C73.8767 191.914 74.545 189.951 75.7208 188.367ZM74.6058 221.685C72.2372 221.685 69.9923 220.781 68.2666 219.128C66.4917 217.429 65.4887 215.15 65.4396 212.711L65.0602 194.315C64.9536 189.267 68.9861 185.072 74.0483 184.965L81.5302 184.813L81.9193 188.211C79.2214 188.777 77.3037 191.183 77.3602 193.93L77.7386 212.327C77.7695 213.849 78.3974 215.272 79.5081 216.336C80.6178 217.4 82.0643 217.965 83.5896 217.936L105.136 217.62C105.268 217.618 105.409 217.615 105.553 217.618L106.084 217.607L106.086 217.641C106.966 217.721 107.829 218.048 107.848 219.298L107.874 221.015L106.146 221.041L74.8019 221.683C74.7369 221.685 74.6708 221.685 74.6058 221.685Z" fill="#371A45"/>
<path d="M89.4867 203.033C89.4974 203.714 88.6201 209.219 88.6201 209.219C88.6201 209.219 86.8773 209.245 84.7368 209.277C82.0634 209.316 79.8537 206.585 79.8036 203.176C79.7535 199.768 81.8801 196.972 84.5535 196.932C86.3582 196.906 88.4368 196.875 88.4368 196.875C88.4368 196.875 89.4707 201.924 89.4867 203.033Z" fill="#22A7F0"/>
<path d="M89.4867 203.033C89.4974 203.714 88.6201 209.219 88.6201 209.219C88.6201 209.219 86.8773 209.245 84.7368 209.277C82.0634 209.316 79.8537 206.585 79.8036 203.176C79.7535 199.768 81.8801 196.972 84.5535 196.932C86.3582 196.906 88.4368 196.875 88.4368 196.875C88.4368 196.875 89.4707 201.924 89.4867 203.033Z" fill="#1C7AEA"/>
<path d="M87.2865 198.18H87.2855L84.5726 198.22C82.6475 198.248 81.055 200.509 81.0944 203.157C81.1147 204.519 81.5389 205.781 82.2904 206.711C82.9684 207.547 83.8446 207.981 84.7176 207.989L87.4145 207.949C87.472 207.948 87.52 207.908 87.5285 207.853C88.0114 204.732 88.1905 203.315 88.1969 203.045C88.1883 202.661 87.9762 201.21 87.4006 198.274C87.3899 198.218 87.342 198.18 87.2865 198.18ZM84.6782 210.565C83.0089 210.565 81.4504 209.773 80.2822 208.328C79.1704 206.953 78.5415 205.13 78.5137 203.195C78.4519 199.081 81.153 195.694 84.5353 195.644L87.246 195.604C87.2599 195.604 87.2738 195.603 87.2876 195.603C88.5763 195.603 89.686 196.513 89.9333 197.78C90.4833 200.587 90.7679 202.349 90.7775 203.014V203.015C90.7797 203.194 90.7871 203.674 90.0783 208.246C89.8779 209.546 88.7735 210.505 87.4539 210.525L84.756 210.564C84.7304 210.565 84.7037 210.565 84.6782 210.565Z" fill="#371A45"/>
<path d="M93.3706 202.975C93.4207 206.384 91.2941 209.18 88.6196 209.219C85.9462 209.259 83.7376 206.528 83.6864 203.119C83.6363 199.71 85.7629 196.914 88.4363 196.875C91.1108 196.835 93.3194 199.566 93.3706 202.975Z" fill="#22A7F0"/>
<path d="M93.3023 204.133C93.3481 203.791 93.3716 203.441 93.3705 203.084C93.3716 203.441 93.3492 203.791 93.3023 204.133ZM93.2916 201.974C93.0422 200.235 92.2248 198.748 91.0972 197.837C92.2248 198.748 93.0422 200.234 93.2916 201.974Z" fill="white"/>
<path d="M85.4639 198.24C85.4745 198.228 85.4851 198.217 85.4958 198.207C85.4851 198.217 85.4745 198.228 85.4639 198.24Z" fill="#BAD7F9"/>
<path d="M85.4956 198.207C86.2427 197.447 87.1721 196.965 88.1921 196.887C87.1721 196.967 86.2427 197.447 85.4956 198.207Z" fill="#C3BAC7"/>
<path d="M93.2548 204.434C92.919 201.409 90.8777 199.086 88.426 199.086C88.4079 199.086 88.3877 199.086 88.3685 199.087C86.0873 199.121 84.2081 201.16 83.7348 203.872C83.7071 203.627 83.6921 203.378 83.6879 203.12C83.6591 201.152 84.3552 199.387 85.4637 198.24C85.4744 198.228 85.4851 198.218 85.4957 198.207C86.243 197.447 87.1725 196.966 88.1926 196.887C88.2736 196.88 88.3546 196.876 88.4378 196.875C88.4559 196.875 88.474 196.875 88.4932 196.875C89.4483 196.875 90.3416 197.227 91.0973 197.837C92.2251 198.749 93.0427 200.235 93.2921 201.974C93.339 202.3 93.3657 202.634 93.3699 202.974C93.371 203.012 93.371 203.048 93.371 203.084C93.3721 203.441 93.3486 203.791 93.3028 204.133C93.2889 204.234 93.2729 204.334 93.2548 204.434Z" fill="#BCE4FA"/>
<path d="M83.6877 203.12C83.7389 206.526 85.9465 209.259 88.621 209.221C91.2965 209.178 93.421 206.384 93.3698 202.974C93.3634 202.438 93.3016 201.915 93.1918 201.421C92.5202 203.731 90.7902 205.381 88.7382 205.412C86.4891 205.447 84.564 203.517 83.983 200.869C83.7826 201.567 83.6771 202.326 83.6877 203.12Z" fill="#1C7AEA"/>
<path d="M88.4943 198.163C88.4815 198.163 88.4687 198.163 88.4559 198.163C86.5308 198.192 84.9382 200.453 84.9777 203.1C85.016 205.73 86.6555 207.931 88.5646 207.931C88.5774 207.931 88.5891 207.931 88.6009 207.931C90.526 207.902 92.1196 205.641 92.0801 202.994C92.0599 201.632 91.6346 200.37 90.8841 199.441C90.2158 198.615 89.3683 198.163 88.4943 198.163ZM88.5635 210.508C85.2165 210.508 82.4578 207.22 82.397 203.138C82.3362 199.024 85.0363 195.637 88.4186 195.587C90.1209 195.545 91.706 196.356 92.8924 197.823C94.0042 199.198 94.632 201.021 94.6608 202.956C94.7216 207.07 92.0204 210.457 88.6392 210.507C88.6147 210.508 88.5891 210.508 88.5635 210.508Z" fill="#371A45"/>
<path d="M98.6312 220.631H98.6269C97.9138 220.629 97.3382 220.051 97.3403 219.34L97.3691 210.03C97.3776 207.434 98.6792 205.032 100.853 203.604C102.336 202.631 103.204 200.991 103.173 199.219L102.949 186.099C102.937 185.388 103.505 184.802 104.217 184.789C104.925 184.774 105.517 185.344 105.53 186.055L105.754 199.175C105.8 201.835 104.498 204.295 102.271 205.757C100.824 206.708 99.9551 208.309 99.9498 210.039L99.921 219.348C99.9189 220.058 99.3422 220.631 98.6312 220.631Z" fill="#371A45"/>
<path d="M39.9526 194.39C39.9526 194.39 35.968 195.847 35.2304 199.842C34.3734 204.478 37.8132 207.862 37.8132 207.862C37.8132 207.862 57.1198 212.654 66.8392 208.087C66.8392 208.087 73.5269 202.008 66.7795 195.586C66.7795 195.586 47.7596 198.06 39.9526 194.39Z" fill="white"/>
<path d="M61.7432 207.852C62.145 207.318 62.5043 206.749 62.8486 206.175C63.2877 205.355 63.7024 204.515 63.9859 203.629C64.132 203.246 64.2311 202.851 64.3356 202.457C65.6584 202.225 66.9141 201.904 68.0675 201.474C68.0717 201.567 68.0739 201.658 68.0739 201.751C68.0568 204.142 66.3811 206.09 65.8439 206.653C64.6202 207.195 63.2312 207.584 61.7432 207.852Z" fill="#D7D1DA"/>
<path d="M38.7299 206.313C41.7433 206.998 57.5546 210.322 65.8435 206.653C66.3807 206.09 68.0564 204.142 68.0735 201.751C68.0831 200.262 67.436 198.799 66.1452 197.393C62.3855 197.823 47.5443 199.266 39.9781 196.27C39.0571 196.765 37.326 197.967 36.922 200.154C36.3752 203.116 38.0338 205.478 38.7299 206.313ZM55.3449 211.778C46.6083 211.778 37.9389 209.663 37.3985 209.529L36.9412 209.415L36.6054 209.085C36.4391 208.921 32.5271 204.999 33.5376 199.53C34.4437 194.628 39.1605 192.851 39.3609 192.778L40.0357 192.531L40.6859 192.836C47.9451 196.249 66.3711 193.908 66.5566 193.884L67.371 193.778L67.9658 194.344C70.3514 196.613 71.5442 199.126 71.5133 201.813C71.4643 206.156 68.1385 209.229 67.9978 209.358L67.8059 209.531L67.5714 209.642C64.1689 211.241 59.7473 211.778 55.3449 211.778Z" fill="#371A45"/>
<path d="M62.8015 201.498C62.7887 201.566 62.7717 201.639 62.7546 201.713C60.3168 212.294 46.5745 215.45 40.877 212.222C36.7379 209.875 37.2805 204.772 37.2805 204.772C37.2805 204.772 8.51686 206.289 5.08012 183.779C4.42136 179.481 5.02853 175.101 6.64782 170.82C6.65219 170.803 6.65646 170.794 6.65646 170.794C12.5694 155.169 31.9709 140.843 52.7112 136.376L43.2029 164.011C41.5059 166.517 39.8825 170.021 38.7493 171.8C40.5412 172.362 42.6646 173.08 42.6646 173.08C54.3474 177.4 66.51 184.91 62.8015 201.498Z" fill="white"/>
<path d="M47.0827 152.74C47.0816 152.74 47.0816 152.74 47.0806 152.739L49.8282 144.755V144.756L47.0827 152.74Z" fill="#B8B2BB"/>
<path d="M47.0809 152.74C41.6658 151.011 36.8285 148.653 32.8003 145.814C35.7189 144.169 38.7494 142.72 41.8641 141.483C43.5409 142.289 45.2432 143.028 46.9658 143.702C47.9145 144.073 48.8674 144.424 49.8289 144.755L47.0809 152.74Z" fill="#D7D1DA"/>
<path d="M46.2566 211.71C44.9487 211.71 43.6621 211.516 42.5546 211.108C41.3213 210.653 40.3768 209.849 39.7788 208.74C39.4782 208.186 39.2608 207.562 39.1297 206.9C39.0646 206.57 39.0199 206.231 38.9953 205.891C38.9836 205.721 38.9772 205.552 38.9762 205.385C38.9751 205.234 38.9836 205.023 38.99 204.954L38.9911 204.937C38.9964 204.869 38.9985 204.801 38.9953 204.732C38.9602 203.793 38.1874 203.057 37.2546 203.057C37.2333 203.057 37.2109 203.058 37.1875 203.058C36.8475 203.071 36.4925 203.077 36.1301 203.077C35.3583 203.077 34.5535 203.051 33.7775 203.007C32.622 202.941 31.4676 202.834 30.3196 202.684C28.0235 202.384 25.7541 201.919 23.5582 201.257C19.1812 199.939 15.0441 197.791 12.0088 194.568C10.491 192.967 9.26057 191.117 8.37466 189.098C7.48821 187.084 6.92911 184.888 6.66976 182.679C6.6008 182.066 6.55997 181.45 6.5459 180.833C7.71461 185.707 11.0436 191.325 19.4469 195.174C26.4288 198.371 31.862 199.105 35.3807 199.105C38.3739 199.105 39.9814 198.574 39.9814 198.574C39.9814 198.574 41.0558 208.507 49.9864 208.507C50.2422 208.507 50.5045 208.499 50.7731 208.482C54.3057 208.262 57.221 206.898 59.5203 205.02C59.2463 205.45 58.9543 205.869 58.6142 206.255C56.7531 208.486 54.0786 210.092 51.1931 210.958C49.753 211.399 48.2478 211.655 46.7651 211.7C46.5945 211.707 46.4251 211.71 46.2566 211.71Z" fill="#D7D1DA"/>
<path d="M53.0724 138.055C43.9297 140.048 35.1559 143.879 27.4213 149.158C23.5583 151.804 19.9529 154.825 16.7861 158.229C13.6264 161.631 10.9009 165.437 9.01675 169.592C7.13832 173.733 6.1731 178.266 6.66984 182.679C6.92918 184.888 7.48828 187.084 8.37473 189.098C9.26064 191.117 10.4911 192.967 12.0089 194.568C15.0442 197.791 19.1813 199.939 23.5583 201.257C25.7541 201.919 28.0236 202.384 30.3196 202.684C31.4677 202.834 32.6221 202.941 33.7776 203.007C34.9192 203.071 36.1216 203.099 37.1876 203.058C38.1501 203.022 38.9592 203.771 38.9954 204.732C38.9986 204.801 38.9965 204.869 38.9912 204.937L38.9901 204.954C38.9837 205.023 38.9752 205.234 38.9762 205.385C38.9773 205.552 38.9837 205.721 38.9954 205.891C39.0199 206.231 39.0647 206.57 39.1297 206.9C39.2609 207.562 39.4783 208.186 39.7789 208.74C40.3769 209.849 41.3213 210.654 42.5547 211.108C43.805 211.57 45.2846 211.757 46.7652 211.7C48.2479 211.655 49.753 211.399 51.1931 210.958C54.0787 210.092 56.7532 208.486 58.6143 206.255C59.0951 205.71 59.4799 205.097 59.854 204.483C60.1877 203.848 60.5138 203.204 60.7302 202.516C60.8613 202.181 60.9392 201.826 61.0372 201.479C61.13 201.127 61.1961 200.724 61.2781 200.348C61.3645 199.968 61.421 199.585 61.4764 199.202C61.5329 198.819 61.599 198.437 61.6256 198.053C61.9678 194.991 61.664 191.914 60.5575 189.135C59.4564 186.353 57.5622 183.91 55.2288 181.89C52.8944 179.862 50.1549 178.232 47.2704 176.864C45.8293 176.178 44.3359 175.554 42.8403 174.983C41.3672 174.412 39.7491 173.997 38.2151 173.487C37.276 173.174 36.7676 172.16 37.081 171.222C37.1215 171.099 37.1748 170.986 37.2377 170.878L37.2537 170.853C37.5905 170.289 37.9838 169.673 38.3921 169.059C38.7929 168.439 39.2044 167.808 39.6318 167.18C40.0582 166.551 40.5155 165.934 40.9749 165.315C41.4439 164.701 41.9407 164.099 42.4875 163.531C42.8211 163.183 43.3744 163.172 43.7219 163.505C43.9916 163.764 44.0587 164.154 43.9191 164.478L43.9137 164.491C43.6227 165.163 43.3424 165.839 43.0599 166.519L42.2199 168.574C41.9353 169.262 41.6465 169.952 41.3352 170.647C41.0293 171.347 40.7042 172.044 40.2458 172.748L39.2832 170.113C40.0816 170.371 40.8704 170.656 41.6624 170.928C42.4576 171.199 43.2443 171.449 44.0566 171.77C45.648 172.377 47.2043 173.029 48.7489 173.761C51.8263 175.224 54.828 176.991 57.4876 179.299C60.1397 181.59 62.4262 184.498 63.7575 187.872C65.1006 191.238 65.4396 194.928 65.0484 198.41C65.0154 198.851 64.9429 199.281 64.8789 199.714C64.816 200.147 64.751 200.58 64.6561 201.004C64.5634 201.435 64.4952 201.848 64.3801 202.293C64.2575 202.741 64.1519 203.192 63.9857 203.629C63.7021 204.515 63.2875 205.355 62.8483 206.174C62.3707 206.972 61.8644 207.758 61.2568 208.456C58.868 211.306 55.6168 213.211 52.1919 214.245C51.3328 214.508 50.4576 214.716 49.5686 214.861C48.6818 215.017 47.78 215.106 46.8707 215.134C45.0543 215.192 43.1846 214.999 41.3299 214.319C40.4036 213.974 39.4826 213.453 38.6927 212.781C37.9028 212.104 37.2355 211.276 36.7537 210.377C36.2666 209.479 35.9447 208.525 35.7549 207.569C35.6601 207.091 35.5961 206.611 35.562 206.128C35.546 205.886 35.5364 205.644 35.5353 205.398C35.5364 205.137 35.5375 204.935 35.5684 204.594L37.3698 206.488C36.0374 206.538 34.8382 206.503 33.5825 206.436C32.3428 206.366 31.1063 206.25 29.8741 206.089C27.4106 205.767 24.9632 205.268 22.5625 204.546C20.1644 203.819 17.8096 202.871 15.5902 201.618C13.3712 200.371 11.2865 198.813 9.50794 196.928C7.72524 195.05 6.26264 192.85 5.22451 190.48C4.18212 188.105 3.54862 185.606 3.24972 183.059C2.67048 177.913 3.80764 172.743 5.879 168.181C7.9606 163.597 10.9041 159.512 14.2622 155.895C17.6298 152.276 21.4248 149.101 25.4749 146.326C33.5868 140.793 42.7284 136.797 52.3465 134.698C53.2749 134.495 54.1927 135.083 54.3953 136.009C54.5978 136.935 54.0105 137.851 53.082 138.053H53.0809L53.0724 138.055Z" fill="#371A45"/>
<path d="M148.612 66.6322C148.647 66.9823 148.681 67.3334 148.705 67.6866C149.706 79.4397 147.809 91.5246 142.802 102.857C141.75 105.237 140.569 107.581 139.243 109.878C138.601 111 137.917 112.11 137.208 113.219C135.05 116.545 132.669 119.642 130.09 122.506C127.872 124.977 125.505 127.273 123.021 129.386C120.028 131.942 116.85 134.23 113.535 136.255C112.319 136.986 111.094 137.687 109.851 138.352C87.0771 150.501 58.6438 150.534 35.4582 135.991C23.5793 128.546 14.6414 118.259 8.96674 106.576C-1.68822 84.6677 -0.873724 57.8528 13.4952 35.6883C17.7396 29.1431 22.8576 23.4714 28.6031 18.7508C29.2683 18.1912 29.9547 17.6539 30.6476 17.1283C32.5013 15.7059 34.4051 14.3834 36.3632 13.1546C40.8946 10.3161 45.701 7.9904 50.6747 6.19557C55.6474 4.39757 60.7992 3.12721 66.0234 2.41121C67.6852 2.1814 69.3535 2.00905 71.0291 1.89308C73.548 1.7218 76.0679 1.67181 78.6038 1.75906C91.2172 2.15909 103.864 5.78064 115.244 12.9131C134.894 25.2269 146.488 45.3157 148.612 66.6322Z" fill="white"/>
<path d="M148.614 66.6328C149.813 78.7188 147.96 91.1858 142.804 102.857C141.749 105.237 140.569 107.581 139.243 109.881C138.599 111.001 137.914 112.111 137.207 113.218C136.672 114.046 136.121 114.858 135.556 115.654C134.825 116.148 134.072 116.625 133.294 117.092C80.5686 148.754 37.1129 103.798 37.1129 103.798C37.1129 103.798 17.6778 44.4236 70.4026 12.7626C71.3982 12.1646 72.3938 11.6093 73.3915 11.0943C86.5923 4.27677 102.503 4.95875 115.104 12.8264C115.15 12.8551 115.196 12.8838 115.242 12.9126C134.893 25.2274 146.493 45.3194 148.614 66.6328Z" fill="#371A45"/>
<path d="M74.577 145.456C62.9954 145.456 51.466 142.703 41.0527 137.231C39.4645 136.397 37.9039 135.5 36.3721 134.539C35.6334 134.075 34.9054 133.602 34.188 133.114C37.9711 132.153 42.6112 130.861 44.0832 129.977C45.9753 128.841 47.6126 127.384 48.9642 125.657C52.6716 127.842 56.8427 129.998 61.4146 131.905C68.7665 134.972 78.279 137.564 89.4342 137.564C97.4161 137.564 106.239 136.237 115.71 132.807C114.705 133.491 113.68 134.151 112.64 134.785C111.442 135.51 110.231 136.201 109.041 136.838C98.2454 142.595 86.3846 145.456 74.577 145.456ZM89.4215 134.12C78.795 134.119 69.7376 131.655 62.7417 128.736C58.367 126.911 54.3772 124.855 50.8275 122.771C51.8924 120.75 52.6482 118.476 53.0639 116.005C63.2288 122.182 77.6533 128.387 94.5903 128.387C96.8853 128.387 99.2282 128.273 101.611 128.029C111.033 127.065 121.111 124.079 131.567 118.106C130.681 119.215 129.759 120.302 128.807 121.359C128.792 121.376 128.776 121.394 128.76 121.412C128.747 121.427 128.732 121.443 128.718 121.459C128.717 121.461 128.715 121.462 128.713 121.465C128.699 121.481 128.684 121.498 128.669 121.513C128.668 121.515 128.667 121.516 128.666 121.518C128.652 121.533 128.637 121.549 128.623 121.564C128.621 121.567 128.619 121.569 128.617 121.571C128.603 121.587 128.589 121.602 128.575 121.617C128.573 121.619 128.571 121.622 128.569 121.624C128.555 121.639 128.541 121.654 128.528 121.67C128.525 121.672 128.523 121.674 128.521 121.677C128.507 121.692 128.493 121.707 128.479 121.723C128.477 121.725 128.475 121.727 128.473 121.731C128.459 121.745 128.446 121.76 128.432 121.775C128.429 121.777 128.427 121.781 128.424 121.784C128.411 121.799 128.397 121.814 128.383 121.828C128.381 121.831 128.379 121.834 128.376 121.836C128.363 121.851 128.349 121.866 128.335 121.881C128.333 121.884 128.33 121.887 128.327 121.89C128.314 121.904 128.301 121.919 128.287 121.933C128.284 121.937 128.281 121.94 128.278 121.943C128.265 121.957 128.252 121.971 128.24 121.985C128.236 121.989 128.232 121.993 128.228 121.999C128.216 122.011 128.203 122.025 128.191 122.038C128.187 122.042 128.183 122.048 128.178 122.052C128.167 122.065 128.155 122.077 128.143 122.09C128.138 122.095 128.133 122.102 128.126 122.107C128.116 122.119 128.105 122.131 128.094 122.143C128.088 122.15 128.081 122.157 128.075 122.164C128.065 122.174 128.056 122.185 128.046 122.195C128.038 122.204 128.029 122.214 128.021 122.222C128.012 122.231 128.005 122.239 127.996 122.249C127.982 122.264 127.967 122.28 127.954 122.294C127.951 122.297 127.95 122.299 127.948 122.3C127.727 122.539 127.503 122.776 127.277 123.013C126.747 123.566 126.206 124.113 125.656 124.652C112.325 131.639 100.081 134.12 89.4215 134.12Z" fill="#D7D1DA"/>
<path d="M94.5903 128.388C77.6534 128.388 63.2289 122.182 53.064 116.005C53.064 116.004 53.064 116.004 53.064 116.004C63.2289 122.181 77.6555 128.389 94.5925 128.387C96.8875 128.387 99.2283 128.273 101.611 128.029C99.2283 128.273 96.8853 128.388 94.5903 128.388ZM102.607 107.751C86.536 107.751 72.5539 102.577 61.9487 96.7961C63.5668 96.2663 64.6466 94.464 64.4366 92.4628C64.3908 92.0244 64.2853 91.6084 64.1328 91.2244L147.02 68.1566C147.169 70.0099 147.241 71.8675 147.241 73.723C147.24 76.3328 147.093 78.9394 146.803 81.53C146.25 86.4559 145.177 91.3233 143.601 96.0396C129.063 104.58 115.195 107.752 102.607 107.751ZM57.4951 94.0916C57.1444 93.8522 56.798 93.6086 56.4558 93.3607L57.315 93.1213C57.3182 93.1628 57.3225 93.2033 57.3267 93.2437C57.3576 93.5373 57.4141 93.8203 57.4951 94.0916Z" fill="#371A45"/>
<path d="M76.1726 1.8905C74.4852 1.8905 72.768 1.94901 71.0433 2.06604C69.4038 2.17882 67.7239 2.35333 66.0482 2.5842C60.8335 3.29703 55.6818 4.56731 50.7358 6.35893C45.7375 8.16121 40.9343 10.4976 36.4584 13.301C34.5109 14.5224 32.5922 15.8555 30.7545 17.2641C30.0317 17.812 29.3453 18.3556 28.7142 18.8844C22.8781 23.6773 17.8062 29.3618 13.639 35.7815C2.96823 52.2456 -0.590555 71.7577 3.61783 90.7209C7.79264 109.533 19.1327 125.56 35.5491 135.847C57.8435 149.826 86.2832 150.728 109.769 138.201C111.004 137.541 112.239 136.835 113.443 136.108C116.787 134.068 119.973 131.762 122.912 129.255C125.424 127.114 127.796 124.804 129.961 122.389C132.551 119.515 134.94 116.398 137.061 113.126C137.836 111.915 138.501 110.825 139.092 109.794C140.387 107.546 141.583 105.189 142.644 102.789C147.659 91.4433 149.662 78.9466 148.439 66.6488C146.232 44.4651 134.099 24.9328 115.151 13.0605C104.193 6.1898 91.5533 2.34163 78.5966 1.93202C77.7971 1.90436 76.9881 1.8905 76.1726 1.8905ZM74.578 147.347C60.8783 147.347 47.2544 143.594 35.3647 136.14C18.8696 125.802 7.47466 109.699 3.2795 90.7954C-0.949038 71.7407 2.6268 52.137 13.3482 35.5932C17.535 29.1437 22.6303 23.4326 28.4925 18.6184C29.1267 18.0875 29.8175 17.5396 30.5445 16.9896C32.3896 15.5746 34.3169 14.2351 36.274 13.0084C40.7712 10.1912 45.5968 7.84418 50.6174 6.0334C55.5869 4.23433 60.7621 2.95869 66.0013 2.24055C67.6834 2.00967 69.3718 1.83412 71.0198 1.72136C73.5909 1.54688 76.1438 1.50113 78.6083 1.58624C91.6247 1.99797 104.326 5.86423 115.335 12.7669C134.375 24.6976 146.566 44.3237 148.783 66.6148C150.012 78.9711 148 91.5284 142.962 102.927C141.895 105.339 140.694 107.707 139.392 109.966C138.798 111.001 138.131 112.096 137.352 113.313C135.22 116.602 132.821 119.733 130.219 122.62C128.044 125.046 125.661 127.366 123.136 129.518C120.184 132.037 116.983 134.353 113.623 136.402C112.414 137.134 111.172 137.842 109.932 138.506C98.8604 144.411 86.6893 147.347 74.578 147.347Z" fill="#371A45"/>
<path d="M76.1714 3.04904C74.5107 3.04904 72.8201 3.10651 71.122 3.22247C69.5103 3.33311 67.8559 3.50438 66.2058 3.73099C61.0722 4.43423 56.0004 5.68434 51.1311 7.44725C46.2096 9.22186 41.481 11.522 37.0754 14.2818C35.1589 15.4841 33.27 16.7959 31.4621 18.1832C30.7479 18.7237 30.0764 19.2556 29.4592 19.7716C23.7073 24.4954 18.7154 30.0916 14.6129 36.4112C4.11262 52.6136 0.610007 71.8119 4.75081 90.4698C8.85793 108.978 20.0147 124.744 36.1662 134.866C58.1099 148.623 86.1029 149.511 109.222 137.18C110.437 136.529 111.655 135.834 112.841 135.116C116.129 133.111 119.265 130.842 122.157 128.375C124.631 126.266 126.965 123.993 129.096 121.617C131.647 118.786 133.998 115.718 136.087 112.497C136.848 111.308 137.502 110.233 138.084 109.219C139.36 107.003 140.537 104.683 141.584 102.321C146.516 91.1581 148.487 78.8625 147.283 66.7626C145.113 44.9396 133.175 25.7232 114.534 14.0414C103.75 7.27916 91.3101 3.49271 78.5602 3.08949C77.7725 3.06183 76.9752 3.04904 76.1714 3.04904ZM74.5768 148.504C60.6629 148.504 46.8236 144.692 34.7474 137.121C17.9872 126.617 6.40901 110.254 2.14626 91.0464C-2.14986 71.6864 1.48206 51.7699 12.3738 34.9643C16.6256 28.4138 21.8005 22.6133 27.7547 17.7236C28.3954 17.1874 29.1021 16.6267 29.844 16.066C31.7105 14.634 33.6686 13.2732 35.6567 12.0274C40.2232 9.16653 45.1245 6.7823 50.2229 4.94385C55.2681 3.11711 60.5232 1.82129 65.8423 1.09357C67.5511 0.858444 69.2662 0.680756 70.9397 0.565842C73.5513 0.388168 76.1437 0.342438 78.6487 0.428619C91.8676 0.846741 104.768 4.77364 115.953 11.787C135.298 23.9081 147.685 43.8512 149.938 66.4998C151.187 79.055 149.141 91.8135 144.024 103.395C142.94 105.844 141.72 108.249 140.397 110.544C139.796 111.593 139.119 112.703 138.33 113.937C136.161 117.281 133.723 120.462 131.082 123.395C128.874 125.857 126.454 128.214 123.889 130.398C120.89 132.957 117.64 135.309 114.228 137.391C112.998 138.135 111.739 138.853 110.482 139.527C99.2376 145.524 86.8779 148.504 74.5768 148.504Z" fill="#371A45"/>
<path d="M76.1717 3.4342C74.5184 3.4342 72.8373 3.49272 71.1478 3.60762C69.5457 3.71721 67.8999 3.88741 66.2594 4.11403C61.1524 4.81302 56.1072 6.05675 51.2624 7.81009C46.3676 9.57619 41.6635 11.8636 37.2803 14.6096C35.3755 15.8043 33.4962 17.1097 31.6979 18.4886C30.9859 19.0269 30.3196 19.5557 29.7078 20.0674C23.9836 24.7689 19.0185 30.3353 14.9379 36.6209C4.49446 52.7349 1.0105 71.83 5.1286 90.3868C9.21344 108.793 20.3091 124.474 36.3721 134.539C58.1975 148.223 86.0424 149.105 109.04 136.839C110.248 136.193 111.46 135.501 112.641 134.786C115.91 132.792 119.029 130.535 121.905 128.081C124.367 125.983 126.689 123.722 128.807 121.359C131.345 118.542 133.684 115.491 135.762 112.286C136.518 111.105 137.17 110.036 137.748 109.027C139.019 106.822 140.19 104.515 141.23 102.164C146.136 91.0635 148.096 78.8348 146.899 66.8009C144.74 45.0971 132.869 25.986 114.329 14.368C103.602 7.64304 91.2293 3.8757 78.5477 3.47568C77.7642 3.44801 76.9711 3.4342 76.1717 3.4342ZM74.577 148.89C60.5927 148.89 46.6799 145.058 34.5419 137.448C17.6934 126.89 6.05438 110.439 1.76882 91.1294C-2.5499 71.6683 1.1011 51.6476 12.0492 34.7548C16.3229 28.1713 21.5241 22.341 27.5098 17.4257C28.1526 16.8874 28.8636 16.3235 29.6108 15.7586C31.4847 14.3202 33.4535 12.953 35.4511 11.7008C40.0411 8.82399 44.9669 6.42912 50.091 4.5811C55.1617 2.7448 60.4446 1.44255 65.7903 0.710587C67.5076 0.474396 69.2312 0.296707 70.9133 0.18074C73.5377 0.0019989 76.1439 -0.0437469 78.6617 0.0424347C91.9488 0.462677 104.916 4.41087 116.159 11.4593C135.606 23.6454 148.059 43.6927 150.324 66.4615C151.578 79.0827 149.523 91.9082 144.378 103.551C143.288 106.013 142.061 108.43 140.733 110.735C140.13 111.791 139.449 112.907 138.656 114.144C136.476 117.509 134.025 120.705 131.369 123.652C129.151 126.127 126.718 128.497 124.141 130.692C121.127 133.264 117.859 135.629 114.43 137.72C113.193 138.468 111.928 139.19 110.665 139.866C99.3626 145.894 86.9421 148.89 74.577 148.89Z" fill="#371A45"/>
<path d="M76.1717 3.4342C74.5184 3.4342 72.8373 3.49272 71.1478 3.60762C69.5457 3.71721 67.8999 3.88741 66.2594 4.11403C61.1524 4.81302 56.1072 6.05675 51.2624 7.81009C46.3676 9.57619 41.6635 11.8636 37.2803 14.6096C35.3755 15.8043 33.4962 17.1097 31.6979 18.4886C30.9859 19.0269 30.3196 19.5557 29.7078 20.0674C23.9836 24.7689 19.0185 30.3353 14.9379 36.6209C4.49446 52.7349 1.0105 71.83 5.1286 90.3868C9.21344 108.793 20.3091 124.474 36.3721 134.539C58.1975 148.223 86.0424 149.105 109.04 136.839C110.248 136.193 111.46 135.501 112.641 134.786C115.91 132.792 119.029 130.535 121.905 128.081C124.367 125.983 126.689 123.722 128.807 121.359C131.345 118.542 133.684 115.491 135.762 112.286C136.518 111.105 137.17 110.036 137.748 109.027C139.019 106.822 140.19 104.515 141.23 102.164C146.136 91.0635 148.096 78.8348 146.899 66.8009C144.74 45.0971 132.869 25.986 114.329 14.368C103.602 7.64304 91.2293 3.8757 78.5477 3.47568C77.7642 3.44801 76.9711 3.4342 76.1717 3.4342ZM74.577 148.89C60.5927 148.89 46.6799 145.058 34.5419 137.448C17.6934 126.89 6.05438 110.439 1.76882 91.1294C-2.5499 71.6683 1.1011 51.6476 12.0492 34.7548C16.3229 28.1713 21.5241 22.341 27.5098 17.4257C28.1526 16.8874 28.8636 16.3235 29.6108 15.7586C31.4847 14.3202 33.4535 12.953 35.4511 11.7008C40.0411 8.82399 44.9669 6.42912 50.091 4.5811C55.1617 2.7448 60.4446 1.44255 65.7903 0.710587C67.5076 0.474396 69.2312 0.296707 70.9133 0.18074C73.5377 0.0019989 76.1439 -0.0437469 78.6617 0.0424347C91.9488 0.462677 104.916 4.41087 116.159 11.4593C135.606 23.6454 148.059 43.6927 150.324 66.4615C151.578 79.0827 149.523 91.9082 144.378 103.551C143.288 106.013 142.061 108.43 140.733 110.735C140.13 111.791 139.449 112.907 138.656 114.144C136.476 117.509 134.025 120.705 131.369 123.652C129.151 126.127 126.718 128.497 124.141 130.692C121.127 133.264 117.859 135.629 114.43 137.72C113.193 138.468 111.928 139.19 110.665 139.866C99.3626 145.894 86.9421 148.89 74.577 148.89Z" fill="#371A45"/>
<path d="M76.1845 3.43381C74.5216 3.43381 72.8385 3.49229 71.1522 3.60826C69.5778 3.71466 67.9319 3.88382 66.2584 4.11363C61.1652 4.80836 56.1201 6.05209 51.2647 7.81075C46.3783 9.57152 41.6743 11.8589 37.2804 14.6102C35.4022 15.7869 33.524 17.0913 31.6948 18.4892C30.9145 19.0818 30.2867 19.5819 29.7132 20.066C23.9816 24.7706 19.0163 30.3359 14.9371 36.6226C4.49475 52.7356 1.01164 71.8296 5.12974 90.3854C9.21448 108.792 20.3104 124.473 36.3733 134.54C58.1998 148.222 86.0446 149.103 109.042 136.838C110.231 136.201 111.442 135.51 112.64 134.785C115.916 132.788 119.035 130.531 121.905 128.08C123.114 127.05 124.317 125.955 125.482 124.823C126.624 123.711 127.744 122.545 128.808 121.359C130.724 119.23 132.52 116.979 134.148 114.666C134.7 113.889 135.242 113.09 135.762 112.286C136.551 111.051 137.184 110.011 137.75 109.026C139.005 106.849 140.176 104.541 141.231 102.162C146.135 91.0631 148.096 78.8344 146.901 66.8016C144.741 45.0977 132.869 25.9866 114.328 14.3676C109.925 11.6057 105.222 9.32362 100.349 7.58519C95.2321 5.76164 89.8842 4.52325 84.4553 3.90192C82.5248 3.68169 80.5379 3.53699 78.5488 3.47316C77.7675 3.44762 76.9776 3.43381 76.1845 3.43381ZM74.5771 148.889C60.5918 148.889 46.6821 145.058 34.543 137.449C17.6948 126.889 6.05542 110.439 1.76996 91.129C-2.54875 71.6679 1.10151 51.6482 12.048 34.7565C16.3203 28.1719 21.5221 22.3417 27.5099 17.4275C28.11 16.9211 28.7826 16.3859 29.6055 15.7592C31.5157 14.2996 33.4835 12.9335 35.4512 11.7015C40.053 8.81934 44.9787 6.42445 50.0932 4.58174C55.1757 2.74118 60.4585 1.4379 65.7926 0.710175C67.5418 0.470795 69.2665 0.293137 70.9177 0.181427C73.5239 0.00268555 76.1312 -0.0441132 78.6629 0.0410004C80.7415 0.108017 82.8233 0.259094 84.8465 0.48996C90.5365 1.14001 96.1413 2.43904 101.506 4.35089C106.615 6.17337 111.545 8.56506 116.158 11.4589C135.606 23.646 148.06 43.6944 150.326 66.4622V66.4633C151.578 79.0834 149.522 91.9078 144.379 103.549C143.274 106.041 142.048 108.458 140.733 110.737C140.143 111.767 139.483 112.849 138.659 114.14C138.106 114.996 137.536 115.836 136.959 116.647C135.258 119.065 133.375 121.424 131.37 123.652C130.256 124.893 129.083 126.117 127.883 127.284C126.664 128.468 125.405 129.615 124.141 130.691C121.133 133.259 117.865 135.624 114.429 137.719C113.175 138.479 111.91 139.199 110.666 139.866C99.3637 145.894 86.9411 148.889 74.5771 148.889Z" fill="#371A45"/>
<path d="M30.9848 107.478L32.0977 108.628C32.5827 109.13 44.2176 121.008 62.7417 128.736C76.7558 134.583 99.0321 138.606 125.658 124.651C126.741 123.591 127.799 122.484 128.807 121.359C130.724 119.23 132.52 116.979 134.148 114.666C134.7 113.89 135.241 113.091 135.762 112.286C136.55 111.051 137.184 110.012 137.75 109.026C139.005 106.85 140.176 104.541 141.231 102.162C146.134 91.0632 148.095 78.8346 146.901 66.8017C144.741 45.0979 132.869 25.9868 114.327 14.3678C109.925 11.6059 105.222 9.32379 100.349 7.58536C99.2315 7.18745 98.0855 6.81085 96.9439 6.46721C87.7447 3.70316 77.9881 4.08083 69.4711 7.53004C68.8145 7.79602 68.1685 8.07796 67.5524 8.36841C34.6464 23.8739 28.2613 56.2967 27.044 69.5179C25.2084 89.461 30.2717 105.296 30.4881 105.961L30.9848 107.478ZM89.4343 137.564C78.2791 137.564 68.7665 134.972 61.4146 131.905C42.2445 123.907 30.1289 111.538 29.6225 111.016L27.9596 109.296L27.2167 107.025C26.9896 106.331 21.7178 89.8429 23.6169 69.203C24.8886 55.3955 31.5722 21.5237 66.0835 5.26282C66.7582 4.94472 67.4618 4.63724 68.177 4.34785C77.4199 0.605011 87.9888 0.189056 97.9352 3.17972C99.1334 3.53931 100.335 3.93401 101.506 4.35106C106.615 6.17354 111.545 8.56523 116.158 11.4591C135.606 23.6462 148.06 43.6946 150.326 66.4623V66.4634C151.578 79.0836 149.522 91.908 144.379 103.549C143.273 106.041 142.048 108.458 140.733 110.737C140.143 111.767 139.483 112.849 138.659 114.141C138.106 114.996 137.535 115.836 136.959 116.647C135.257 119.065 133.375 121.424 131.37 123.652C130.256 124.894 129.082 126.117 127.883 127.284L127.705 127.457L127.486 127.573C113.5 134.949 100.639 137.564 89.4343 137.564Z" fill="#371A45"/>
<path d="M145.846 94.6647C145.006 97.4277 143.995 100.165 142.807 102.857C141.75 105.238 140.569 107.582 139.244 109.883C138.597 111.001 137.913 112.112 137.208 113.219C136.672 114.048 136.122 114.858 135.555 115.654C134.826 116.148 134.073 116.626 133.295 117.093C80.5709 148.752 37.1119 103.797 37.1119 103.797C37.1119 103.797 29.4946 80.5338 36.7346 55.3573C36.7367 55.5084 36.7399 55.6584 36.7431 55.8084C37.0917 72.7438 46.4635 88.211 61.2995 96.4393C80.3332 106.995 110.617 115.851 144.43 95.5467C144.911 95.2573 145.381 94.9626 145.846 94.6647Z" fill="#220F2D"/>
<path d="M43.1975 128.504C40.9536 129.855 28.7826 132.658 28.7826 132.658C28.7826 132.658 17.8758 125.945 12.0953 116.351C11.3156 115.065 10.4299 112.614 9.56395 109.792C7.46018 102.981 5.48145 94.0017 5.48145 94.0017C5.48145 94.0017 9.66297 86.9863 15.9069 83.2349C25.5485 77.4429 39.4762 82.887 47.0093 95.388C47.8088 96.7147 48.5017 98.0669 49.0965 99.4277C54.0958 110.93 51.8146 123.326 43.1975 128.504Z" fill="white"/>
<path d="M38.0215 128.522C40.9944 125.622 42.7 121.507 43.056 116.91C43.057 116.903 43.0571 116.898 43.0581 116.891C43.0581 116.888 43.0581 116.885 43.0581 116.882C43.38 112.675 42.5731 108.07 40.5723 103.624C40.3463 103.122 40.1054 102.623 39.8485 102.125C40.6448 102.493 41.8813 102.926 43.2809 102.926C44.7381 102.926 46.3732 102.456 47.872 100.953C49.6404 105.354 50.3322 109.948 49.8355 114.267C49.1778 119.98 46.5043 124.514 42.3098 127.034C41.7161 127.39 40.0734 127.933 38.0215 128.522Z" fill="#D7D1DA"/>
<path d="M7.31309 94.321C8.52625 99.7055 11.6005 112.204 13.5682 115.468C18.3122 123.339 26.8115 129.303 29.1033 130.821C33.7615 129.727 40.9184 127.869 42.3094 127.034C46.504 124.515 49.1774 119.98 49.8351 114.267C50.5119 108.386 48.9844 101.996 45.535 96.2722C38.4997 84.6032 25.607 79.4134 16.7936 84.7075C11.995 87.5886 8.41699 92.6432 7.31309 94.321ZM28.4808 134.491L27.8785 134.12C27.4191 133.837 16.5493 127.077 10.6197 117.239C7.89851 112.725 4.2101 96.2361 3.79842 94.371L3.65186 93.7071L4.0001 93.123C4.17993 92.8209 8.47882 85.6916 15.0196 81.7636C25.4588 75.4961 40.4707 81.2093 48.4834 94.5019C52.323 100.87 54.0168 108.03 53.2536 114.659C52.4712 121.456 49.2147 126.896 44.0832 129.977C41.7253 131.393 31.2459 133.853 29.1694 134.332L28.4808 134.491Z" fill="#371A45"/>
<path d="M38.8269 100.3C45.7193 111.734 44.1577 125.295 35.3401 130.592C26.5215 135.887 13.7851 130.911 6.89259 119.477C0.000240326 108.043 1.56154 94.4813 10.3801 89.1851C19.1985 83.89 31.9344 88.866 38.8269 100.3Z" fill="white"/>
<path d="M19.6603 131.007C19.6597 131.006 19.6591 131.006 19.6584 131.006C19.6591 131.006 19.6597 131.006 19.6603 131.007ZM19.6263 130.992C15.182 129.067 10.9655 125.587 7.77051 120.859C7.77328 120.861 7.77541 120.862 7.77808 120.863C10.97 125.587 15.1842 129.067 19.6263 130.992Z" fill="#67C1DA"/>
<path d="M37.127 129.327C37.1301 129.325 37.1323 129.323 37.1355 129.32C37.1333 129.322 37.1291 129.325 37.127 129.327Z" fill="#371A45"/>
<path d="M38.0215 128.522C40.9923 125.622 42.6989 121.507 43.056 116.91C42.7 121.507 40.9944 125.622 38.0215 128.522Z" fill="#B7ACBC"/>
<path d="M37.1406 129.315C37.4454 129.063 37.7385 128.798 38.021 128.523C37.7385 128.798 37.4454 129.063 37.1406 129.315Z" fill="#371A45"/>
<path d="M39.8477 102.126C39.8477 102.126 39.8477 102.126 39.8466 102.126C39.7785 101.993 39.7094 101.861 39.6392 101.729C39.6392 101.728 39.6392 101.728 39.6392 101.727C39.7094 101.86 39.7796 101.993 39.8477 102.126Z" fill="#D7D1DA"/>
<path d="M40.5719 103.625C40.346 103.123 40.104 102.623 39.8472 102.126C39.8482 102.126 39.8482 102.126 39.8482 102.126C40.1051 102.624 40.346 103.123 40.5719 103.625Z" fill="#B7ACBC"/>
<path d="M27.4864 132.709C24.9067 132.709 22.2452 132.121 19.66 131.007C19.6595 131.006 19.6588 131.006 19.6582 131.006C19.6474 131.001 19.6368 130.996 19.626 130.992C15.184 129.067 10.9697 125.587 7.77783 120.864C11.5156 122.658 15.4066 123.611 19.1661 123.611C22.8047 123.611 26.3191 122.719 29.4573 120.836C35.8381 117.005 39.3195 109.87 39.6393 101.729C39.7097 101.861 39.7789 101.993 39.8472 102.126C40.1041 102.623 40.346 103.123 40.572 103.625C42.5717 108.07 43.3787 112.677 43.0578 116.882C43.0578 116.886 43.0578 116.889 43.0578 116.892C43.0568 116.897 43.0568 116.904 43.0557 116.91C42.6986 121.507 40.992 125.622 38.0212 128.523C37.7387 128.798 37.4456 129.063 37.1407 129.315C37.1386 129.317 37.1375 129.319 37.1354 129.32C37.1322 129.323 37.13 129.325 37.1268 129.327C36.5683 129.789 35.9724 130.212 35.3382 130.592C32.9451 132.028 30.2621 132.709 27.4864 132.709Z" fill="#D7D1DA"/>
<path d="M18.2373 88.781C15.7179 88.781 13.3468 89.4077 11.2673 90.6578C3.27569 95.4571 1.9748 107.988 8.36711 118.592C14.7597 129.196 26.4631 133.92 34.4524 129.119C38.2504 126.839 40.669 122.732 41.266 117.552C41.881 112.205 40.4921 106.393 37.3529 101.185C34.2136 95.9784 29.7206 92.0302 24.6989 90.0683C22.4988 89.2087 20.3174 88.781 18.2373 88.781ZM27.5301 134.41C19.474 134.411 10.7559 129.216 5.41858 120.362C-1.95206 108.136 -0.124061 93.4899 9.49287 87.7139C14.2262 84.8722 20.0713 84.5722 25.9535 86.8702C31.6777 89.1066 36.773 93.5622 40.3013 99.4148C43.8296 105.267 45.3859 111.848 44.6845 117.944C43.9639 124.207 40.96 129.22 36.2272 132.063C33.574 133.656 30.6 134.41 27.5301 134.41Z" fill="#371A45"/>
<path d="M18.2373 88.781C15.7179 88.781 13.3468 89.4077 11.2673 90.6578C3.27569 95.4571 1.9748 107.988 8.36711 118.592C14.7597 129.196 26.4631 133.92 34.4524 129.119C38.2504 126.839 40.669 122.732 41.266 117.552C41.881 112.205 40.4921 106.393 37.3529 101.185C34.2136 95.9784 29.7206 92.0302 24.6989 90.0683C22.4988 89.2087 20.3174 88.781 18.2373 88.781ZM27.5301 134.41C19.474 134.411 10.7559 129.216 5.41858 120.362C-1.95206 108.136 -0.124061 93.4899 9.49287 87.7139C14.2262 84.8722 20.0713 84.5722 25.9535 86.8702C31.6777 89.1066 36.773 93.5622 40.3013 99.4148C43.8296 105.267 45.3859 111.848 44.6845 117.944C43.9639 124.207 40.96 129.22 36.2272 132.063C33.574 133.656 30.6 134.41 27.5301 134.41Z" fill="#371A45"/>
<path d="M133.482 70.7024C133.482 70.7024 133.051 64.586 127.697 53.6755C125.935 50.0891 123.776 46.0983 119.58 41.1947C116.406 37.487 112.288 34.6676 107.637 33.0643C107.613 33.0558 107.59 33.0484 107.566 33.0398C102.115 31.1674 96.3556 30.4609 90.77 30.4609C73.7041 30.4609 58.2733 37.0508 58.2733 37.0508C56.7991 36.3529 71.8109 18.9696 96.4856 18.7898C96.5592 18.7898 96.6317 18.7887 96.7052 18.7887C109.794 18.7887 119.929 27.3288 126.195 34.6144C128.285 37.0423 129.943 39.3329 131.136 41.1214L131.145 41.133C131.273 41.3405 131.397 41.548 131.516 41.7608C132.039 42.68 132.52 43.5907 132.953 44.4897C137.321 53.6223 136.972 61.8857 133.482 70.7024Z" fill="#9B8DA2"/>
<path d="M57.8818 85.0266C53.7171 85.0266 49.8892 81.6157 48.9576 76.7898C47.9183 71.4032 50.8827 66.2932 55.5793 65.3772C56.0686 65.2814 56.5578 65.2357 57.0418 65.2357C61.2054 65.2357 65.0333 68.6466 65.9649 73.4725C67.0042 78.8591 64.0398 83.9691 59.3432 84.8851C58.855 84.9809 58.3657 85.0266 57.8818 85.0266Z" fill="#9B8DA2"/>
<path d="M57.3152 93.1206C57.1404 90.9172 58.525 88.9841 60.4523 88.7724C60.5685 88.7596 60.6836 88.7532 60.7976 88.7532C62.2441 88.7532 63.5446 89.7522 64.133 91.2236L57.3152 93.1206Z" fill="#9B8DA2"/>
<path d="M61.9486 96.7957C61.7301 96.6776 61.5137 96.5584 61.2995 96.4392C59.9873 95.7115 58.7188 94.9274 57.4951 94.0912C57.4141 93.8199 57.3576 93.5369 57.3267 93.2432C57.3224 93.2028 57.3181 93.1624 57.3149 93.1209L64.1328 91.2239C64.2852 91.608 64.3907 92.024 64.4366 92.4623C64.6466 94.4635 63.5668 96.2658 61.9486 96.7957Z" fill="#9B8DA2"/>
<path d="M60.9653 96.9534C59.3944 96.9534 57.995 95.7735 57.4951 94.0914C58.7186 94.9277 59.9869 95.7118 61.2989 96.4395C61.5132 96.5587 61.7295 96.6778 61.948 96.7959C61.7434 96.8629 61.5302 96.9098 61.3096 96.9342C61.1945 96.947 61.0794 96.9534 60.9653 96.9534Z" fill="#918796"/>
<path d="M26.2319 165.873C30.0353 169.235 38.3177 171.633 42.6647 173.079L26.2319 165.873Z" fill="white"/>
<path d="M26.8023 165.23C27.8971 166.084 29.1784 166.766 30.4991 167.366C31.8241 167.964 33.2002 168.482 34.6009 168.95C37.4065 169.893 40.2717 170.638 43.2084 171.45C44.1252 171.704 44.6624 172.651 44.4087 173.566C44.1539 174.481 43.2052 175.018 42.2885 174.764C42.2352 174.75 42.1841 174.734 42.135 174.714L42.1201 174.709C39.3412 173.646 36.4588 172.597 33.6596 171.348C32.2568 170.725 30.8679 170.048 29.5152 169.276C28.1678 168.498 26.8428 167.633 25.6607 166.516C25.3164 166.189 25.3015 165.646 25.6287 165.301C25.9357 164.979 26.4346 164.946 26.78 165.213L26.8023 165.23Z" fill="#371A45"/>
<path d="M9.57461 196.108C8.89251 196.108 8.24708 195.7 7.97728 195.03C6.02648 190.18 6.87274 182.147 12.2648 176.181C15.924 172.129 24.5635 166.05 41.315 170.834C42.2285 171.094 42.7572 172.045 42.4961 172.957C42.2349 173.869 41.283 174.398 40.3684 174.136C29.2857 170.971 20.2118 172.515 14.8203 178.48C10.4196 183.351 9.65551 189.983 11.171 193.75C11.5249 194.63 11.097 195.63 10.215 195.983C10.005 196.067 9.78802 196.108 9.57461 196.108Z" fill="#371A45"/>
<path d="M142.486 162.761C141.882 162.761 141.296 162.443 140.981 161.879C132.88 147.355 133.252 132.47 133.272 131.843C133.303 130.895 134.104 130.158 135.046 130.18C135.995 130.21 136.741 131.003 136.712 131.949C136.707 132.094 136.366 146.543 143.988 160.209C144.45 161.038 144.152 162.084 143.322 162.544C143.056 162.692 142.769 162.761 142.486 162.761Z" fill="#371A45"/>
<path d="M94.1714 257.024C85.6544 257.024 78.8515 255.643 78.359 255.54C77.4285 255.347 76.8326 254.438 77.0255 253.509C77.2195 252.58 78.1309 251.983 79.0615 252.178C79.264 252.22 99.5331 256.323 113.428 250.198C114.298 249.815 115.314 250.208 115.697 251.075C116.081 251.943 115.688 252.957 114.819 253.34C108.325 256.203 100.739 257.024 94.1714 257.024Z" fill="#371A45"/>
<path d="M56.4665 254.249C44.6206 254.249 37.064 251.534 36.627 251.373C35.7359 251.044 35.2796 250.057 35.609 249.167C35.9373 248.278 36.9265 247.824 37.8166 248.15C37.9594 248.202 52.2571 253.298 72.1339 249.19C73.0645 248.997 73.9759 249.594 74.1678 250.523C74.3607 251.452 73.7627 252.36 72.8321 252.553C66.7967 253.801 61.2782 254.249 56.4665 254.249Z" fill="#371A45"/>
<path d="M36.4412 272.411C37.5541 271.582 38.7191 271.121 39.8469 270.796C40.4119 270.644 40.9726 270.527 41.5301 270.42C42.0833 270.347 42.6408 270.241 43.1876 270.198C45.3824 269.978 47.5303 269.991 49.659 270.08C51.7877 270.172 53.8919 270.367 55.9865 270.596C58.0801 270.826 60.1629 271.103 62.2373 271.4C62.7084 271.467 63.0357 271.902 62.9675 272.372C62.9035 272.821 62.4974 273.138 62.0518 273.106C59.9721 272.953 57.8957 272.822 55.8234 272.736C53.7512 272.653 51.6822 272.604 49.6313 272.656C47.5836 272.71 45.5434 272.844 43.5948 273.176C43.1034 273.247 42.6397 273.374 42.1622 273.468C41.7027 273.592 41.2454 273.72 40.8105 273.868C39.9503 274.178 39.1903 274.587 38.6488 275.045L38.5848 275.099C37.86 275.713 36.7727 275.624 36.1576 274.899C35.5426 274.176 35.6321 273.09 36.357 272.477C36.3836 272.454 36.4145 272.431 36.4412 272.411Z" fill="#371A45"/>
<path d="M111.054 273.987C109.237 273.406 107.256 273.073 105.252 272.884C103.243 272.698 101.198 272.654 99.1535 272.728L99.1492 272.729C98.6738 272.746 98.2741 272.374 98.256 271.9C98.24 271.465 98.5512 271.094 98.968 271.021C101.054 270.654 103.166 270.406 105.309 270.309C107.454 270.218 109.633 270.267 111.86 270.649L111.871 270.65C112.811 270.812 113.442 271.701 113.281 272.638C113.12 273.576 112.227 274.205 111.288 274.045C111.211 274.031 111.126 274.01 111.054 273.987Z" fill="#371A45"/>
<path d="M219.8 123.706L190.735 122.132C190.687 122.129 190.651 122.088 190.654 122.04C190.656 121.997 190.691 121.962 190.735 121.959L219.8 120.385C220.719 120.335 221.505 121.038 221.555 121.955C221.605 122.872 220.9 123.656 219.982 123.706C219.921 123.71 219.859 123.71 219.8 123.706Z" fill="#371A45"/>
<path d="M242.312 94.8687L213.246 93.293C213.198 93.2909 213.162 93.2505 213.164 93.2026C213.167 93.1579 213.203 93.1239 213.246 93.1218L242.312 91.5461C243.23 91.4961 244.016 92.2004 244.066 93.1175C244.116 94.0346 243.412 94.8187 242.493 94.8687C242.432 94.8719 242.37 94.8719 242.312 94.8687Z" fill="#371A45"/>
<path d="M235.584 111.135L206.519 109.559C206.471 109.557 206.434 109.517 206.437 109.469C206.44 109.425 206.475 109.39 206.519 109.388L235.584 107.814C236.503 107.764 237.289 108.467 237.339 109.384C237.389 110.301 236.684 111.085 235.765 111.135C235.705 111.138 235.643 111.138 235.584 111.135Z" fill="#371A45"/>
<path d="M225.583 122.959C225.583 122.959 227.529 131.31 233.117 135.902L282.335 111.94L225.583 122.959Z" fill="#D8D8D8"/>
<path d="M225.583 122.959H225.588H225.583ZM227.696 124.241C228.478 126.586 230.247 130.92 233.389 133.922L270.241 115.98L227.696 124.241ZM233.117 137.564C232.739 137.564 232.363 137.435 232.06 137.185C226.105 132.291 224.047 123.699 223.963 123.335C223.86 122.897 223.941 122.434 224.187 122.056C224.433 121.677 224.822 121.415 225.265 121.328L282.018 110.309C282.837 110.15 283.649 110.622 283.913 111.413C284.178 112.203 283.816 113.067 283.065 113.433L233.847 137.396C233.615 137.508 233.365 137.564 233.117 137.564Z" fill="#371A45"/>
<path d="M228.171 100.849C228.171 100.849 228.803 108.427 232.025 112.951C235.246 117.475 282.336 111.94 282.336 111.94L236.865 101L228.171 100.849Z" fill="white"/>
<path d="M233.354 111.95C233.817 112.333 237.107 113.943 258.889 112.444C263.777 112.107 268.593 111.682 272.564 111.298L236.654 102.658L230.071 102.544C230.454 104.935 231.372 109.142 233.354 111.95ZM243.806 116.386C232.428 116.386 231.293 114.791 230.668 113.913C227.223 109.073 226.54 101.315 226.514 100.988C226.474 100.52 226.635 100.057 226.957 99.7153C227.278 99.3727 227.726 99.178 228.2 99.1886L236.895 99.3387C237.017 99.3408 237.137 99.3567 237.255 99.3855L282.726 110.326C283.509 110.514 284.045 111.236 283.996 112.04C283.948 112.843 283.331 113.496 282.531 113.59C282.412 113.604 270.577 114.988 258.5 115.8C252.294 116.217 247.508 116.386 243.806 116.386Z" fill="#371A45"/>
<path d="M224.247 109.708C219.53 112.834 211.064 126.833 211.064 126.833C211.064 126.833 253.589 120.475 282.336 111.94C282.336 111.94 246.906 108.571 224.247 109.708Z" fill="white"/>
<path d="M224.815 111.344C221.914 113.545 217.322 120.128 214.412 124.628C223.947 123.104 250.661 118.617 272.926 112.824C261.009 111.92 240.024 110.629 224.815 111.344ZM211.063 128.494C210.513 128.494 209.99 128.22 209.679 127.754C209.321 127.219 209.306 126.525 209.639 125.974C210.525 124.509 218.439 111.564 223.327 108.325C223.576 108.16 223.865 108.065 224.163 108.049C246.683 106.917 282.137 110.253 282.493 110.287C283.286 110.361 283.914 110.988 283.992 111.779C284.069 112.57 283.573 113.305 282.81 113.532C254.281 122.003 211.736 128.412 211.31 128.476C211.228 128.487 211.145 128.494 211.063 128.494Z" fill="#371A45"/>
<path d="M228.171 100.849C228.171 100.849 234.584 93.9707 239.004 90.664L282.336 111.94L228.171 100.849Z" fill="white"/>
<path d="M231.461 99.8279L269.946 107.708L239.203 92.6124C236.601 94.6956 233.475 97.7745 231.461 99.8279ZM282.337 113.601C282.226 113.601 282.114 113.591 282.001 113.567L227.838 102.477C227.248 102.356 226.77 101.928 226.586 101.356C226.403 100.783 226.544 100.158 226.953 99.7183C227.22 99.4332 233.519 92.6933 238.006 89.3356C238.507 88.96 239.176 88.8983 239.738 89.1739L283.07 110.45C283.822 110.819 284.181 111.687 283.91 112.478C283.677 113.161 283.035 113.601 282.337 113.601Z" fill="#371A45"/>
</svg>
