<svg width="81" height="91" viewBox="0 0 81 91" fill="none" xmlns="http://www.w3.org/2000/svg">
<path fill-rule="evenodd" clip-rule="evenodd" d="M80.7145 47.4177C80.7145 37.6552 77.6616 28.6411 72.6191 20.9876C64.1122 8.29979 49.4651 0 32.8285 0C29.0895 0 25.625 0.408186 22.1948 1.19054C14.0651 2.89132 6.86166 6.73508 0.893066 12.0075V68.6093C10.3262 68.6093 18.4215 62.4865 21.1657 53.9486C20.9599 53.5405 20.6855 53.1663 20.3082 52.8601L9.77736 43.778C7.4105 41.7371 8.67969 37.9273 11.8355 37.6552L25.7965 36.3626C27.1343 36.2265 28.2663 35.4442 28.7808 34.2536L34.3721 21.6679C35.607 18.8106 39.7233 18.8106 40.9924 21.6679L46.5494 34.2536C47.0982 35.4442 48.2302 36.2265 49.5337 36.3626L63.529 37.6552C66.6849 37.9273 67.954 41.7371 65.5872 43.778L55.0221 52.8601C54.0273 53.7105 53.6157 55.0031 53.8901 56.2617L56.9773 69.6638C57.6634 72.6572 54.336 75.0383 51.5918 73.4736L39.5174 66.4664C38.3855 65.8201 35.6413 65.582 34.2692 65.9561L31.7651 66.7045L28.9523 67.6229L26.0023 68.8134C17.1867 72.317 4.63202 81.9094 1.71632 90.1071H54.2331C61.6767 86.3995 68.0226 80.7869 72.6191 73.8817C77.7988 66.3643 80.7145 57.3842 80.7145 47.5537C80.7145 47.5537 80.7145 47.5537 80.7145 47.4177Z" fill="white"/>
</svg>
