<svg width="300" height="300" viewBox="0 0 300 300" fill="none" xmlns="http://www.w3.org/2000/svg">
<path fill-rule="evenodd" clip-rule="evenodd" d="M267.988 185.026C271.202 180.487 278.33 182.397 278.844 187.935L279.557 195.615C279.638 196.484 280.095 197.275 280.807 197.78L287.101 202.237C291.641 205.452 289.731 212.579 284.192 213.093L276.513 213.807L276.235 210.82L283.915 210.106C286.68 209.849 287.634 206.291 285.367 204.685L279.073 200.228C277.646 199.217 276.732 197.633 276.57 195.892L275.857 188.213C275.6 185.447 272.041 184.493 270.436 186.76L265.978 193.054C264.968 194.481 263.384 195.396 261.643 195.557L253.963 196.271C251.197 196.527 250.244 200.086 252.511 201.692L258.805 206.149C260.232 207.16 261.146 208.743 261.308 210.485L262.021 218.164C262.278 220.93 265.837 221.884 267.442 219.617L269.89 221.351C266.675 225.89 259.548 223.98 259.034 218.442L258.321 210.762C258.24 209.893 257.783 209.102 257.071 208.597L250.777 204.14C246.237 200.925 248.147 193.798 253.686 193.283L261.365 192.57C262.235 192.489 263.026 192.033 263.53 191.32L267.988 185.026Z" fill="#7F92A0"/>
<path d="M264.398 191.738C266.741 188.857 271.404 190.445 271.5 194.157L271.697 201.663C271.727 202.83 272.266 203.926 273.172 204.662L278.997 209.399C281.878 211.742 280.29 216.405 276.578 216.502L269.072 216.698C267.905 216.728 266.81 217.267 266.073 218.173L261.336 223.999C258.993 226.88 254.331 225.291 254.234 221.579L254.038 214.073C254.007 212.906 253.468 211.811 252.563 211.074L246.737 206.337C243.856 203.994 245.444 199.332 249.156 199.235L256.662 199.039C257.829 199.008 258.925 198.47 259.661 197.564L264.398 191.738Z" fill="url(#paint0_linear_1_8124)"/>
<rect x="30.5493" y="256.299" width="240" height="2.5" rx="1.25" fill="#7F92A0"/>
<path d="M80 117C80 105.954 88.9543 97 100 97H198.789C210.296 97 219.43 106.687 218.754 118.174L218 131H80V117Z" fill="url(#paint1_linear_1_8124)"/>
<path fill-rule="evenodd" clip-rule="evenodd" d="M198.789 100H100C90.6112 100 83 107.611 83 117V128H215.171L215.76 117.998C216.334 108.234 208.57 100 198.789 100ZM218 131L218.754 118.174C219.43 106.687 210.296 97 198.789 97H100C88.9543 97 80 105.954 80 117V131H218Z" fill="#7F92A0"/>
<path d="M227 105.5C227 124.554 211.554 140 192.5 140C173.446 140 158 124.554 158 105.5C158 86.4462 173.446 71 192.5 71C211.554 71 227 86.4462 227 105.5Z" fill="white"/>
<path fill-rule="evenodd" clip-rule="evenodd" d="M192.5 137C209.897 137 224 122.897 224 105.5C224 88.103 209.897 74 192.5 74C175.103 74 161 88.103 161 105.5C161 122.897 175.103 137 192.5 137ZM192.5 140C211.554 140 227 124.554 227 105.5C227 86.4462 211.554 71 192.5 71C173.446 71 158 86.4462 158 105.5C158 124.554 173.446 140 192.5 140Z" fill="#7F92A0"/>
<path fill-rule="evenodd" clip-rule="evenodd" d="M184.913 93.1452L206.324 98.8823C206.746 98.9955 206.997 99.4296 206.884 99.8519L203.195 113.616C203.082 114.039 202.648 114.289 202.226 114.176L180.815 108.439C180.392 108.326 180.142 107.892 180.255 107.469L183.943 93.705C184.056 93.2826 184.49 93.032 184.913 93.1452ZM181.649 93.0903C182.101 91.401 183.838 90.3985 185.527 90.8511L206.939 96.5883C208.628 97.0409 209.63 98.7773 209.178 100.467L205.49 114.231C205.037 115.92 203.301 116.923 201.611 116.47L180.2 110.733C178.511 110.28 177.508 108.544 177.961 106.855L181.649 93.0903ZM174.82 110.931C174.186 110.761 173.535 111.137 173.365 111.77C173.195 112.404 173.571 113.055 174.205 113.225L205.557 121.626C206.191 121.795 206.842 121.419 207.012 120.786C207.181 120.152 206.805 119.501 206.172 119.331L174.82 110.931Z" fill="#7F92A0"/>
<path d="M180 121.5C180 140.554 164.554 156 145.5 156C126.446 156 111 140.554 111 121.5C111 102.446 126.446 87 145.5 87C164.554 87 180 102.446 180 121.5Z" fill="white"/>
<path fill-rule="evenodd" clip-rule="evenodd" d="M145.5 153C162.897 153 177 138.897 177 121.5C177 104.103 162.897 90 145.5 90C128.103 90 114 104.103 114 121.5C114 138.897 128.103 153 145.5 153ZM145.5 156C164.554 156 180 140.554 180 121.5C180 102.446 164.554 87 145.5 87C126.446 87 111 102.446 111 121.5C111 140.554 126.446 156 145.5 156Z" fill="#7F92A0"/>
<path fill-rule="evenodd" clip-rule="evenodd" d="M140.413 112.356C133.75 116.203 133.734 123.062 137.229 129.751C137.33 129.682 137.435 129.616 137.543 129.553C138.301 129.116 139.269 129.375 139.706 130.133L143.665 136.989C144.102 137.746 143.842 138.714 143.085 139.151C140.813 140.463 137.908 139.685 136.597 137.413L135.805 136.042C135.01 134.665 134.983 133.055 135.59 131.709C131.039 123.64 131.17 114.95 139.225 110.299C147.28 105.649 154.872 109.88 159.584 117.856C161.054 118.003 162.434 118.831 163.229 120.208L164.021 121.58C165.332 123.851 164.554 126.756 162.282 128.068C161.525 128.505 160.556 128.246 160.119 127.489L156.161 120.633C155.724 119.875 155.983 118.907 156.74 118.47C156.849 118.407 156.958 118.349 157.069 118.296C153.024 111.925 147.076 108.509 140.413 112.356Z" fill="#7F92A0"/>
<path d="M220 216V137C220 132.582 216.418 129 212 129H159.953C153.876 129 148.345 125.495 145.75 120C143.155 114.505 137.624 111 131.547 111H98C88.0589 111 80 119.059 80 129V216C80 227.046 88.9543 236 100 236H200C211.046 236 220 227.046 220 216Z" fill="white"/>
<path fill-rule="evenodd" clip-rule="evenodd" d="M217 216V137C217 134.239 214.761 132 212 132H159.953C152.716 132 146.128 127.825 143.037 121.281C140.938 116.836 136.463 114 131.547 114H98C89.7157 114 83 120.716 83 129V216C83 225.389 90.6112 233 100 233H200C209.389 233 217 225.389 217 216ZM220 137V216C220 227.046 211.046 236 200 236H100C88.9543 236 80 227.046 80 216V129C80 119.059 88.0589 111 98 111H131.547C137.624 111 143.155 114.505 145.75 120C148.345 125.495 153.876 129 159.953 129H212C216.418 129 220 132.582 220 137Z" fill="#7F92A0"/>
<path d="M68.1522 91.0311C68.738 91.6169 68.738 92.5667 68.1522 93.1525C67.5664 93.7382 66.6167 93.7382 66.0309 93.1525L49.0603 76.1819C48.4746 75.5961 48.4746 74.6464 49.0603 74.0606C49.6461 73.4748 50.5959 73.4748 51.1817 74.0606L68.1522 91.0311Z" fill="url(#paint2_linear_1_8124)"/>
<path d="M82.4985 84.6312C82.7129 85.4314 82.238 86.2539 81.4378 86.4683C80.6376 86.6827 79.8151 86.2078 79.6007 85.4076L73.3891 62.2254C73.1746 61.4252 73.6495 60.6027 74.4497 60.3883C75.2499 60.1739 76.0724 60.6488 76.2868 61.449L82.4985 84.6312Z" fill="url(#paint3_linear_1_8124)"/>
<path d="M62.5 103C63.3284 103 64 103.672 64 104.5C64 105.328 63.3284 106 62.5 106L38.5 106C37.6716 106 37 105.328 37 104.5C37 103.672 37.6716 103 38.5 103L62.5 103Z" fill="url(#paint4_linear_1_8124)"/>
<path d="M111 192C107.134 192 104 195.134 104 199C104 202.866 107.134 206 111 206H189C192.866 206 196 202.866 196 199C196 195.645 193.64 192.841 190.489 192.159C189.679 191.983 189 191.328 189 190.5C189 189.672 189.676 188.988 190.495 189.111C195.309 189.832 199 193.985 199 199C199 204.523 194.523 209 189 209H111C105.477 209 101 204.523 101 199C101 193.477 105.477 189 111 189H163C163.828 189 164.5 189.672 164.5 190.5C164.5 191.328 163.828 192 163 192H111Z" fill="#7F92A0"/>
<defs>
<linearGradient id="paint0_linear_1_8124" x1="268.792" y1="190.475" x2="256.943" y2="225.261" gradientUnits="userSpaceOnUse">
<stop stop-color="#1DA1F2"/>
<stop offset="1" stop-color="#003CC5"/>
</linearGradient>
<linearGradient id="paint1_linear_1_8124" x1="149.395" y1="97" x2="149.395" y2="131" gradientUnits="userSpaceOnUse">
<stop stop-color="#1DA1F2"/>
<stop offset="1" stop-color="#003CC5"/>
</linearGradient>
<linearGradient id="paint2_linear_1_8124" x1="68.1522" y1="93.1525" x2="49.0603" y2="74.0606" gradientUnits="userSpaceOnUse">
<stop stop-color="#1DA1F2"/>
<stop offset="1" stop-color="#003CC5"/>
</linearGradient>
<linearGradient id="paint3_linear_1_8124" x1="81.4378" y1="86.4683" x2="74.4497" y2="60.3883" gradientUnits="userSpaceOnUse">
<stop stop-color="#1DA1F2"/>
<stop offset="1" stop-color="#003CC5"/>
</linearGradient>
<linearGradient id="paint4_linear_1_8124" x1="64" y1="104.5" x2="37" y2="104.5" gradientUnits="userSpaceOnUse">
<stop stop-color="#1DA1F2"/>
<stop offset="1" stop-color="#003CC5"/>
</linearGradient>
</defs>
</svg>
